<svg
 viewBox="0.00 0.00 388.50 468.00" xmlns="http://www.w3.org/2000/svg" xmlns:xlink="http://www.w3.org/1999/xlink">
<g id="graph0" class="graph" transform="scale(1 1) rotate(0) translate(4 464)">
<title>ptl</title>
<polygon fill="white" stroke="transparent" points="-4,4 -4,-464 384.5,-464 384.5,4 -4,4"/>
<!-- S -->
<g id="node1" class="node">
<title>S</title>
<path fill="#dfeaf6" stroke="#4f7ab0" d="M316.5,-460C316.5,-460 180.5,-460 180.5,-460 174.5,-460 168.5,-454 168.5,-448 168.5,-448 168.5,-436 168.5,-436 168.5,-430 174.5,-424 180.5,-424 180.5,-424 316.5,-424 316.5,-424 322.5,-424 328.5,-430 328.5,-436 328.5,-436 328.5,-448 328.5,-448 328.5,-454 322.5,-460 316.5,-460"/>
<text text-anchor="middle" x="248.5" y="-438.6" font-family="Sarabun, 'TH Sarabun New', Tahoma, sans-serif" font-size="13.00">วินิจฉัยการเจ็บครรภ์คลอดก่อนกำหนด</text>
</g>
<!-- A -->
<g id="node2" class="node">
<title>A</title>
<path fill="#eaf1f8" stroke="#7d9bc0" d="M365,-393C365,-393 132,-393 132,-393 126,-393 120,-387 120,-381 120,-381 120,-363 120,-363 120,-357 126,-351 132,-351 132,-351 365,-351 365,-351 371,-351 377,-357 377,-363 377,-363 377,-381 377,-381 377,-387 371,-393 365,-393"/>
<text text-anchor="middle" x="248.5" y="-375.6" font-family="Sarabun, 'TH Sarabun New', Tahoma, sans-serif" font-size="13.00">ตรวจหาและแก้ไขสาเหตุ/ปัจจัยของการเจ็บครรภ์คลอดก่อนกำหนด</text>
<text text-anchor="middle" x="248.5" y="-361.6" font-family="Sarabun, 'TH Sarabun New', Tahoma, sans-serif" font-size="13.00">ประเมินสุขภาพมารดาและทารกในครรภ์</text>
</g>
<!-- S&#45;&gt;A -->
<g id="edge1" class="edge">
<title>S&#45;&gt;A</title>
<path fill="none" stroke="#5f6b78" d="M248.5,-423.84C248.5,-416.73 248.5,-408.31 248.5,-400.38"/>
<polygon fill="#5f6b78" stroke="#5f6b78" points="250.95,-400.3 248.5,-393.3 246.05,-400.3 250.95,-400.3"/>
</g>
<!-- C1 -->
<g id="node3" class="node">
<title>C1</title>
<path fill="#eaf1f8" stroke="#7d9bc0" d="M170.5,-282C170.5,-282 64.5,-282 64.5,-282 58.5,-282 52.5,-276 52.5,-270 52.5,-270 52.5,-252 52.5,-252 52.5,-246 58.5,-240 64.5,-240 64.5,-240 170.5,-240 170.5,-240 176.5,-240 182.5,-246 182.5,-252 182.5,-252 182.5,-270 182.5,-270 182.5,-276 176.5,-282 170.5,-282"/>
<text text-anchor="middle" x="117.5" y="-264.6" font-family="Sarabun, 'TH Sarabun New', Tahoma, sans-serif" font-size="13.00">ตรวจหาข้อบ่งห้ามในการยับยั้ง</text>
<text text-anchor="middle" x="117.5" y="-250.6" font-family="Sarabun, 'TH Sarabun New', Tahoma, sans-serif" font-size="13.00">การหดรัดตัวของมดลูก</text>
</g>
<!-- A&#45;&gt;C1 -->
<g id="edge2" class="edge">
<title>A&#45;&gt;C1</title>
<path fill="none" stroke="#5f6b78" d="M219.33,-350.99C212.71,-346.22 205.77,-341.04 199.5,-336 180.17,-320.45 159.43,-301.72 143.65,-286.99"/>
<polygon fill="#5f6b78" stroke="#5f6b78" points="145.28,-285.16 138.5,-282.16 141.93,-288.74 145.28,-285.16"/>
<text text-anchor="middle" x="228.5" y="-328" font-family="Sarabun, 'TH Sarabun New', Tahoma, sans-serif" font-size="10.00">GA 24&#45;33+6 สัปดาห์</text>
</g>
<!-- B2 -->
<g id="node7" class="node">
<title>B2</title>
<path fill="#e3f3e0" stroke="#69a35a" d="M368.5,-310C368.5,-310 216.5,-310 216.5,-310 210.5,-310 204.5,-304 204.5,-298 204.5,-298 204.5,-224 204.5,-224 204.5,-218 210.5,-212 216.5,-212 216.5,-212 368.5,-212 368.5,-212 374.5,-212 380.5,-218 380.5,-224 380.5,-224 380.5,-298 380.5,-298 380.5,-304 374.5,-310 368.5,-310"/>
<text text-anchor="middle" x="292.5" y="-292.6" font-family="Sarabun, 'TH Sarabun New', Tahoma, sans-serif" font-size="13.00">• ให้ corticosteroids แบบ single course</text>
<text text-anchor="middle" x="292.5" y="-278.6" font-family="Sarabun, 'TH Sarabun New', Tahoma, sans-serif" font-size="13.00"> &#160;(หากไม่เคยได้และมีโอกาสคลอดใน 7 วัน)</text>
<text text-anchor="middle" x="292.5" y="-264.6" font-family="Sarabun, 'TH Sarabun New', Tahoma, sans-serif" font-size="13.00">• ตรวจการหดรัดตัวของมดลูก</text>
<text text-anchor="middle" x="292.5" y="-250.6" font-family="Sarabun, 'TH Sarabun New', Tahoma, sans-serif" font-size="13.00">• เฝ้าระวังสุขภาพของทารกในครรภ์</text>
<text text-anchor="middle" x="292.5" y="-236.6" font-family="Sarabun, 'TH Sarabun New', Tahoma, sans-serif" font-size="13.00">• ให้ยาปฏิชีวนะขณะคลอดเพื่อป้องกัน GBS</text>
<text text-anchor="middle" x="292.5" y="-222.6" font-family="Sarabun, 'TH Sarabun New', Tahoma, sans-serif" font-size="13.00">• ดำเนินการคลอดอย่างปลอดภัย</text>
</g>
<!-- A&#45;&gt;B2 -->
<g id="edge3" class="edge">
<title>A&#45;&gt;B2</title>
<path fill="none" stroke="#5f6b78" d="M256.67,-350.75C260.57,-341.09 265.45,-329.01 270.33,-316.91"/>
<polygon fill="#5f6b78" stroke="#5f6b78" points="272.7,-317.61 273.04,-310.2 268.15,-315.77 272.7,-317.61"/>
<text text-anchor="middle" x="295.5" y="-328" font-family="Sarabun, 'TH Sarabun New', Tahoma, sans-serif" font-size="10.00">GA 34&#45;36+6 สัปดาห์</text>
</g>
<!-- T1 -->
<g id="node4" class="node">
<title>T1</title>
<path fill="#eaf1f8" stroke="#7d9bc0" d="M95,-171C95,-171 12,-171 12,-171 6,-171 0,-165 0,-159 0,-159 0,-141 0,-141 0,-135 6,-129 12,-129 12,-129 95,-129 95,-129 101,-129 107,-135 107,-141 107,-141 107,-159 107,-159 107,-165 101,-171 95,-171"/>
<text text-anchor="middle" x="53.5" y="-153.6" font-family="Sarabun, 'TH Sarabun New', Tahoma, sans-serif" font-size="13.00">ให้ยายับยั้ง</text>
<text text-anchor="middle" x="53.5" y="-139.6" font-family="Sarabun, 'TH Sarabun New', Tahoma, sans-serif" font-size="13.00">การหดรัดตัวของมดลูก</text>
</g>
<!-- C1&#45;&gt;T1 -->
<g id="edge4" class="edge">
<title>C1&#45;&gt;T1</title>
<path fill="none" stroke="#5f6b78" d="M105.61,-239.75C95.28,-222.16 80.26,-196.57 68.99,-177.38"/>
<polygon fill="#5f6b78" stroke="#5f6b78" points="70.98,-175.93 65.32,-171.14 66.76,-178.42 70.98,-175.93"/>
<text text-anchor="middle" x="95" y="-189" font-family="Sarabun, 'TH Sarabun New', Tahoma, sans-serif" font-size="10.00">ไม่มีข้อห้าม</text>
</g>
<!-- T2 -->
<g id="node5" class="node">
<title>T2</title>
<path fill="#eaf1f8" stroke="#7d9bc0" d="M224,-171C224,-171 141,-171 141,-171 135,-171 129,-165 129,-159 129,-159 129,-141 129,-141 129,-135 135,-129 141,-129 141,-129 224,-129 224,-129 230,-129 236,-135 236,-141 236,-141 236,-159 236,-159 236,-165 230,-171 224,-171"/>
<text text-anchor="middle" x="182.5" y="-153.6" font-family="Sarabun, 'TH Sarabun New', Tahoma, sans-serif" font-size="13.00">ไม่ให้ยายับยั้ง</text>
<text text-anchor="middle" x="182.5" y="-139.6" font-family="Sarabun, 'TH Sarabun New', Tahoma, sans-serif" font-size="13.00">การหดรัดตัวของมดลูก</text>
</g>
<!-- C1&#45;&gt;T2 -->
<g id="edge5" class="edge">
<title>C1&#45;&gt;T2</title>
<path fill="none" stroke="#5f6b78" d="M129.57,-239.75C140.06,-222.16 155.33,-196.57 166.77,-177.38"/>
<polygon fill="#5f6b78" stroke="#5f6b78" points="169.01,-178.41 170.49,-171.14 164.8,-175.9 169.01,-178.41"/>
<text text-anchor="middle" x="173" y="-189" font-family="Sarabun, 'TH Sarabun New', Tahoma, sans-serif" font-size="10.00">มีข้อห้าม</text>
</g>
<!-- B1 -->
<g id="node6" class="node">
<title>B1</title>
<path fill="#e3f3e0" stroke="#69a35a" d="M223,-98C223,-98 12,-98 12,-98 6,-98 0,-92 0,-86 0,-86 0,-12 0,-12 0,-6 6,0 12,0 12,0 223,0 223,0 229,0 235,-6 235,-12 235,-12 235,-86 235,-86 235,-92 229,-98 223,-98"/>
<text text-anchor="middle" x="117.5" y="-80.6" font-family="Sarabun, 'TH Sarabun New', Tahoma, sans-serif" font-size="13.00">• ให้ corticosteroids แบบ single course</text>
<text text-anchor="middle" x="117.5" y="-66.6" font-family="Sarabun, 'TH Sarabun New', Tahoma, sans-serif" font-size="13.00">• ตรวจการหดรัดตัวของมดลูก</text>
<text text-anchor="middle" x="117.5" y="-52.6" font-family="Sarabun, 'TH Sarabun New', Tahoma, sans-serif" font-size="13.00">• เฝ้าระวังสุขภาพของทารกในครรภ์</text>
<text text-anchor="middle" x="117.5" y="-38.6" font-family="Sarabun, 'TH Sarabun New', Tahoma, sans-serif" font-size="13.00">• ถ้ายับยั้งการคลอดไม่ได้ ให้ยาปฏิชีวนะป้องกัน GBS</text>
<text text-anchor="middle" x="117.5" y="-24.6" font-family="Sarabun, 'TH Sarabun New', Tahoma, sans-serif" font-size="13.00"> &#160;และ GA &lt; 32 สัปดาห์ ให้ MgSO4 เพื่อ neuroprotection</text>
<text text-anchor="middle" x="117.5" y="-10.6" font-family="Sarabun, 'TH Sarabun New', Tahoma, sans-serif" font-size="13.00">• ดำเนินการคลอดอย่างปลอดภัย</text>
</g>
<!-- T1&#45;&gt;B1 -->
<g id="edge6" class="edge">
<title>T1&#45;&gt;B1</title>
<path fill="none" stroke="#5f6b78" d="M66.45,-128.97C71.14,-121.71 76.69,-113.13 82.37,-104.35"/>
<polygon fill="#5f6b78" stroke="#5f6b78" points="84.57,-105.45 86.31,-98.24 80.45,-102.79 84.57,-105.45"/>
</g>
<!-- T2&#45;&gt;B1 -->
<g id="edge7" class="edge">
<title>T2&#45;&gt;B1</title>
<path fill="none" stroke="#5f6b78" d="M169.35,-128.97C164.58,-121.71 158.95,-113.13 153.18,-104.35"/>
<polygon fill="#5f6b78" stroke="#5f6b78" points="155.07,-102.75 149.18,-98.24 150.97,-105.44 155.07,-102.75"/>
</g>
</g>
</svg>
