<svg
 viewBox="0.00 0.00 494.00 778.00" xmlns="http://www.w3.org/2000/svg" xmlns:xlink="http://www.w3.org/1999/xlink">
<g id="graph0" class="graph" transform="scale(1 1) rotate(0) translate(4 774)">
<title>syphilis</title>
<polygon fill="white" stroke="transparent" points="-4,4 -4,-774 490,-774 490,4 -4,4"/>
<!-- start -->
<g id="node1" class="node">
<title>start</title>
<path fill="#dfeaf6" stroke="#4f7ab0" d="M124.5,-770C124.5,-770 80.5,-770 80.5,-770 74.5,-770 68.5,-764 68.5,-758 68.5,-758 68.5,-740 68.5,-740 68.5,-734 74.5,-728 80.5,-728 80.5,-728 124.5,-728 124.5,-728 130.5,-728 136.5,-734 136.5,-740 136.5,-740 136.5,-758 136.5,-758 136.5,-764 130.5,-770 124.5,-770"/>
<text text-anchor="middle" x="102.5" y="-752.6" font-family="Sarabun, 'TH Sarabun New', Tahoma, sans-serif" font-size="13.00">First ANC</text>
<text text-anchor="middle" x="102.5" y="-738.6" font-family="Sarabun, 'TH Sarabun New', Tahoma, sans-serif" font-size="13.00">LAB1 ANC</text>
</g>
<!-- ab1 -->
<g id="node2" class="node">
<title>ab1</title>
<path fill="#eaf1f8" stroke="#7d9bc0" d="M252,-686C252,-686 175,-686 175,-686 169,-686 163,-680 163,-674 163,-674 163,-662 163,-662 163,-656 169,-650 175,-650 175,-650 252,-650 252,-650 258,-650 264,-656 264,-662 264,-662 264,-674 264,-674 264,-680 258,-686 252,-686"/>
<text text-anchor="middle" x="213.5" y="-664.6" font-family="Sarabun, 'TH Sarabun New', Tahoma, sans-serif" font-size="13.00">Syphilis Ab / VDRL</text>
</g>
<!-- start&#45;&gt;ab1 -->
<g id="edge1" class="edge">
<title>start&#45;&gt;ab1</title>
<path fill="none" stroke="#5f6b78" d="M130.8,-727.86C146.93,-716.38 167.14,-702 183.54,-690.33"/>
<polygon fill="#5f6b78" stroke="#5f6b78" points="185.11,-692.21 189.39,-686.16 182.27,-688.22 185.11,-692.21"/>
<text text-anchor="middle" x="181.5" y="-704.2" font-family="Sarabun, 'TH Sarabun New', Tahoma, sans-serif" font-size="11.00">Reactive</text>
</g>
<!-- ab2 -->
<g id="node3" class="node">
<title>ab2</title>
<path fill="#eaf1f8" stroke="#7d9bc0" d="M89,-591C89,-591 12,-591 12,-591 6,-591 0,-585 0,-579 0,-579 0,-561 0,-561 0,-555 6,-549 12,-549 12,-549 89,-549 89,-549 95,-549 101,-555 101,-561 101,-561 101,-579 101,-579 101,-585 95,-591 89,-591"/>
<text text-anchor="middle" x="50.5" y="-573.6" font-family="Sarabun, 'TH Sarabun New', Tahoma, sans-serif" font-size="13.00">Syphilis Ab / VDRL</text>
<text text-anchor="middle" x="50.5" y="-559.6" font-family="Sarabun, 'TH Sarabun New', Tahoma, sans-serif" font-size="13.00">at GA 28&#45;32 wks</text>
</g>
<!-- start&#45;&gt;ab2 -->
<g id="edge2" class="edge">
<title>start&#45;&gt;ab2</title>
<path fill="none" stroke="#5f6b78" d="M96.53,-727.7C87.13,-695.69 68.86,-633.48 58.38,-597.83"/>
<polygon fill="#5f6b78" stroke="#5f6b78" points="60.72,-597.09 56.4,-591.07 56.02,-598.47 60.72,-597.09"/>
<text text-anchor="middle" x="105" y="-665.2" font-family="Sarabun, 'TH Sarabun New', Tahoma, sans-serif" font-size="11.00">Non&#45;reactive</text>
</g>
<!-- hx -->
<g id="node4" class="node">
<title>hx</title>
<path fill="#fdeecf" stroke="#d9a441" d="M297,-619C297,-619 164,-619 164,-619 158,-619 152,-613 152,-607 152,-607 152,-533 152,-533 152,-527 158,-521 164,-521 164,-521 297,-521 297,-521 303,-521 309,-527 309,-533 309,-533 309,-607 309,-607 309,-613 303,-619 297,-619"/>
<text text-anchor="start" x="166" y="-601.6" font-family="Sarabun, 'TH Sarabun New', Tahoma, sans-serif" font-size="13.00">Hx taking &amp; Physical examination</text>
<text text-anchor="start" x="166" y="-587.6" font-family="Sarabun, 'TH Sarabun New', Tahoma, sans-serif" font-size="13.00">&#45; Genital lesion (chancre)</text>
<text text-anchor="start" x="166" y="-573.6" font-family="Sarabun, 'TH Sarabun New', Tahoma, sans-serif" font-size="13.00">&#45; Rash</text>
<text text-anchor="start" x="166" y="-559.6" font-family="Sarabun, 'TH Sarabun New', Tahoma, sans-serif" font-size="13.00">&#45; Mucous patch</text>
<text text-anchor="start" x="166" y="-545.6" font-family="Sarabun, 'TH Sarabun New', Tahoma, sans-serif" font-size="13.00">&#45; Organ involvement</text>
<text text-anchor="start" x="166" y="-531.6" font-family="Sarabun, 'TH Sarabun New', Tahoma, sans-serif" font-size="13.00">&#45; Lymphadenopathy</text>
</g>
<!-- ab1&#45;&gt;hx -->
<g id="edge3" class="edge">
<title>ab1&#45;&gt;hx</title>
<path fill="none" stroke="#5f6b78" d="M216.54,-649.84C217.74,-643.03 219.2,-634.78 220.72,-626.23"/>
<polygon fill="#5f6b78" stroke="#5f6b78" points="223.14,-626.64 221.94,-619.32 218.31,-625.78 223.14,-626.64"/>
</g>
<!-- ab2&#45;&gt;hx -->
<g id="edge4" class="edge">
<title>ab2&#45;&gt;hx</title>
<path fill="none" stroke="#5f6b78" d="M101.12,-570C114.7,-570 129.78,-570 144.69,-570"/>
<polygon fill="#5f6b78" stroke="#5f6b78" points="145,-572.45 152,-570 145,-567.55 145,-572.45"/>
<text text-anchor="middle" x="126.5" y="-576.2" font-family="Sarabun, 'TH Sarabun New', Tahoma, sans-serif" font-size="11.00">Reactive</text>
</g>
<!-- mrg -->
<g id="node13" class="node">
<title>mrg</title>
<ellipse fill="#5f6b78" stroke="#5f6b78" cx="80.5" cy="-377" rx="0.72" ry="0.72"/>
</g>
<!-- ab2&#45;&gt;mrg -->
<g id="edge14" class="edge">
<title>ab2&#45;&gt;mrg</title>
<path fill="none" stroke="#5f6b78" d="M53.65,-548.92C61.24,-500.65 79.9,-381.79 80.49,-378.09"/>
<text text-anchor="middle" x="89" y="-469.2" font-family="Sarabun, 'TH Sarabun New', Tahoma, sans-serif" font-size="11.00">Non&#45;reactive</text>
</g>
<!-- stage -->
<g id="node5" class="node">
<title>stage</title>
<path fill="#eaf1f8" stroke="#7d9bc0" d="M474,-591C474,-591 367,-591 367,-591 361,-591 355,-585 355,-579 355,-579 355,-561 355,-561 355,-555 361,-549 367,-549 367,-549 474,-549 474,-549 480,-549 486,-555 486,-561 486,-561 486,-579 486,-579 486,-585 480,-591 474,-591"/>
<text text-anchor="middle" x="420.5" y="-573.6" font-family="Sarabun, 'TH Sarabun New', Tahoma, sans-serif" font-size="13.00">รักษาตามระยะของโรค</text>
<text text-anchor="middle" x="420.5" y="-559.6" font-family="Sarabun, 'TH Sarabun New', Tahoma, sans-serif" font-size="13.00">(treat per stage of disease)</text>
</g>
<!-- hx&#45;&gt;stage -->
<g id="edge5" class="edge">
<title>hx&#45;&gt;stage</title>
<path fill="none" stroke="#5f6b78" d="M309.15,-570C321.87,-570 334.99,-570 347.56,-570"/>
<polygon fill="#5f6b78" stroke="#5f6b78" points="347.89,-572.45 354.89,-570 347.89,-567.55 347.89,-572.45"/>
<text text-anchor="middle" x="332" y="-576.2" font-family="Sarabun, 'TH Sarabun New', Tahoma, sans-serif" font-size="11.00">Yes</text>
</g>
<!-- tpha -->
<g id="node6" class="node">
<title>tpha</title>
<path fill="#eaf1f8" stroke="#7d9bc0" d="M253.5,-490C253.5,-490 197.5,-490 197.5,-490 191.5,-490 185.5,-484 185.5,-478 185.5,-478 185.5,-466 185.5,-466 185.5,-460 191.5,-454 197.5,-454 197.5,-454 253.5,-454 253.5,-454 259.5,-454 265.5,-460 265.5,-466 265.5,-466 265.5,-478 265.5,-478 265.5,-484 259.5,-490 253.5,-490"/>
<text text-anchor="middle" x="225.5" y="-468.6" font-family="Sarabun, 'TH Sarabun New', Tahoma, sans-serif" font-size="13.00">TPHA / TPPA</text>
</g>
<!-- hx&#45;&gt;tpha -->
<g id="edge6" class="edge">
<title>hx&#45;&gt;tpha</title>
<path fill="none" stroke="#5f6b78" d="M228,-521C227.58,-512.88 227.15,-504.75 226.78,-497.56"/>
<polygon fill="#5f6b78" stroke="#5f6b78" points="229.2,-497.03 226.39,-490.16 224.31,-497.28 229.2,-497.03"/>
</g>
<!-- tx1 -->
<g id="node7" class="node">
<title>tx1</title>
<path fill="#eaf1f8" stroke="#7d9bc0" d="M329.5,-412C329.5,-412 121.5,-412 121.5,-412 115.5,-412 109.5,-406 109.5,-400 109.5,-400 109.5,-354 109.5,-354 109.5,-348 115.5,-342 121.5,-342 121.5,-342 329.5,-342 329.5,-342 335.5,-342 341.5,-348 341.5,-354 341.5,-354 341.5,-400 341.5,-400 341.5,-406 335.5,-412 329.5,-412"/>
<text text-anchor="start" x="123.5" y="-394.6" font-family="Sarabun, 'TH Sarabun New', Tahoma, sans-serif" font-size="13.00">&#45; VDRL titer (กรณีส่ง Syphilis Ab มาก่อน)</text>
<text text-anchor="start" x="123.5" y="-380.6" font-family="Sarabun, 'TH Sarabun New', Tahoma, sans-serif" font-size="13.00">&#45; Benzathine Penicillin G 2.4 mU IM weekly x 3 dose</text>
<text text-anchor="start" x="123.5" y="-366.6" font-family="Sarabun, 'TH Sarabun New', Tahoma, sans-serif" font-size="13.00">&#45; รักษา partner กรณีติดเชื้อร่วม</text>
<text text-anchor="start" x="123.5" y="-352.6" font-family="Sarabun, 'TH Sarabun New', Tahoma, sans-serif" font-size="13.00">&#45; Advise เรื่องเพศสัมพันธ์และการใช้ถุงยางอนามัย</text>
</g>
<!-- tpha&#45;&gt;tx1 -->
<g id="edge7" class="edge">
<title>tpha&#45;&gt;tx1</title>
<path fill="none" stroke="#5f6b78" d="M225.5,-453.94C225.5,-444.21 225.5,-431.56 225.5,-419.38"/>
<polygon fill="#5f6b78" stroke="#5f6b78" points="227.95,-419.29 225.5,-412.29 223.05,-419.29 227.95,-419.29"/>
<text text-anchor="middle" x="239.5" y="-430.2" font-family="Sarabun, 'TH Sarabun New', Tahoma, sans-serif" font-size="11.00">Reactive</text>
</g>
<!-- tpha&#45;&gt;mrg -->
<g id="edge15" class="edge">
<title>tpha&#45;&gt;mrg</title>
<path fill="none" stroke="#5f6b78" d="M185.23,-459.77C158.09,-450.55 122.92,-435.18 98.5,-412 86.49,-400.6 80.86,-379.38 80.52,-378.06"/>
<text text-anchor="middle" x="157" y="-430.2" font-family="Sarabun, 'TH Sarabun New', Tahoma, sans-serif" font-size="11.00">Non&#45;reactive</text>
</g>
<!-- dec1 -->
<g id="node8" class="node">
<title>dec1</title>
<path fill="#fdeecf" stroke="#d9a441" d="M273.5,-288C273.5,-288 177.5,-288 177.5,-288 171.5,-288 165.5,-282 165.5,-276 165.5,-276 165.5,-258 165.5,-258 165.5,-252 171.5,-246 177.5,-246 177.5,-246 273.5,-246 273.5,-246 279.5,-246 285.5,-252 285.5,-258 285.5,-258 285.5,-276 285.5,-276 285.5,-282 279.5,-288 273.5,-288"/>
<text text-anchor="middle" x="225.5" y="-270.6" font-family="Sarabun, 'TH Sarabun New', Tahoma, sans-serif" font-size="13.00">VDRL titer ลดลง ≥ 4 เท่า</text>
<text text-anchor="middle" x="225.5" y="-256.6" font-family="Sarabun, 'TH Sarabun New', Tahoma, sans-serif" font-size="13.00">และไม่มีอาการ</text>
</g>
<!-- tx1&#45;&gt;dec1 -->
<g id="edge8" class="edge">
<title>tx1&#45;&gt;dec1</title>
<path fill="none" stroke="#5f6b78" d="M225.5,-341.83C225.5,-326.78 225.5,-309.34 225.5,-295.19"/>
<polygon fill="#5f6b78" stroke="#5f6b78" points="227.95,-295.12 225.5,-288.12 223.05,-295.12 227.95,-295.12"/>
<text text-anchor="middle" x="256" y="-318.2" font-family="Sarabun, 'TH Sarabun New', Tahoma, sans-serif" font-size="11.00">F/U VDRL titer</text>
<text text-anchor="middle" x="256" y="-306.2" font-family="Sarabun, 'TH Sarabun New', Tahoma, sans-serif" font-size="11.00">หลังรักษาครบ 3 mo</text>
</g>
<!-- tx2 -->
<g id="node9" class="node">
<title>tx2</title>
<path fill="#eaf1f8" stroke="#7d9bc0" d="M354,-204C354,-204 175,-204 175,-204 169,-204 163,-198 163,-192 163,-192 163,-174 163,-174 163,-168 169,-162 175,-162 175,-162 354,-162 354,-162 360,-162 366,-168 366,-174 366,-174 366,-192 366,-192 366,-198 360,-204 354,-204"/>
<text text-anchor="start" x="177" y="-186.6" font-family="Sarabun, 'TH Sarabun New', Tahoma, sans-serif" font-size="13.00">&#45; Benzathine Penicillin G 2.4 mU IM x 3 dose</text>
<text text-anchor="start" x="177" y="-172.6" font-family="Sarabun, 'TH Sarabun New', Tahoma, sans-serif" font-size="13.00">&#45; F/U VDRL titer หลังรักษาครบ 3 mo.</text>
</g>
<!-- dec1&#45;&gt;tx2 -->
<g id="edge10" class="edge">
<title>dec1&#45;&gt;tx2</title>
<path fill="none" stroke="#5f6b78" d="M235.14,-245.73C240.19,-235.11 246.45,-221.96 251.88,-210.53"/>
<polygon fill="#5f6b78" stroke="#5f6b78" points="254.18,-211.41 254.97,-204.04 249.75,-209.31 254.18,-211.41"/>
<text text-anchor="middle" x="251.5" y="-222.2" font-family="Sarabun, 'TH Sarabun New', Tahoma, sans-serif" font-size="11.00">No</text>
</g>
<!-- deliver -->
<g id="node11" class="node">
<title>deliver</title>
<path fill="#e3f3e0" stroke="#69a35a" d="M162.5,-36C162.5,-36 92.5,-36 92.5,-36 86.5,-36 80.5,-30 80.5,-24 80.5,-24 80.5,-12 80.5,-12 80.5,-6 86.5,0 92.5,0 92.5,0 162.5,0 162.5,0 168.5,0 174.5,-6 174.5,-12 174.5,-12 174.5,-24 174.5,-24 174.5,-30 168.5,-36 162.5,-36"/>
<text text-anchor="middle" x="127.5" y="-14.6" font-family="Sarabun, 'TH Sarabun New', Tahoma, sans-serif" font-size="13.00">Delivery as usual</text>
</g>
<!-- dec1&#45;&gt;deliver -->
<g id="edge9" class="edge">
<title>dec1&#45;&gt;deliver</title>
<path fill="none" stroke="#5f6b78" d="M191.69,-245.95C176.91,-235.38 160.84,-221.05 151.5,-204 123.17,-152.29 123,-80.57 125.26,-43.45"/>
<polygon fill="#5f6b78" stroke="#5f6b78" points="127.73,-43.22 125.77,-36.07 122.84,-42.89 127.73,-43.22"/>
<text text-anchor="middle" x="137" y="-138.2" font-family="Sarabun, 'TH Sarabun New', Tahoma, sans-serif" font-size="11.00">Yes</text>
</g>
<!-- dec2 -->
<g id="node10" class="node">
<title>dec2</title>
<path fill="#fdeecf" stroke="#d9a441" d="M301.5,-120C301.5,-120 205.5,-120 205.5,-120 199.5,-120 193.5,-114 193.5,-108 193.5,-108 193.5,-90 193.5,-90 193.5,-84 199.5,-78 205.5,-78 205.5,-78 301.5,-78 301.5,-78 307.5,-78 313.5,-84 313.5,-90 313.5,-90 313.5,-108 313.5,-108 313.5,-114 307.5,-120 301.5,-120"/>
<text text-anchor="middle" x="253.5" y="-102.6" font-family="Sarabun, 'TH Sarabun New', Tahoma, sans-serif" font-size="13.00">VDRL titer ลดลง ≥ 4 เท่า</text>
<text text-anchor="middle" x="253.5" y="-88.6" font-family="Sarabun, 'TH Sarabun New', Tahoma, sans-serif" font-size="13.00">และไม่มีอาการ</text>
</g>
<!-- tx2&#45;&gt;dec2 -->
<g id="edge11" class="edge">
<title>tx2&#45;&gt;dec2</title>
<path fill="none" stroke="#5f6b78" d="M261.78,-161.73C260.38,-151.3 258.66,-138.45 257.15,-127.18"/>
<polygon fill="#5f6b78" stroke="#5f6b78" points="259.55,-126.65 256.19,-120.04 254.69,-127.3 259.55,-126.65"/>
</g>
<!-- dec2&#45;&gt;deliver -->
<g id="edge12" class="edge">
<title>dec2&#45;&gt;deliver</title>
<path fill="none" stroke="#5f6b78" d="M221.38,-77.86C202.91,-66.28 179.73,-51.75 161.02,-40.02"/>
<polygon fill="#5f6b78" stroke="#5f6b78" points="162.1,-37.8 154.87,-36.16 159.49,-41.95 162.1,-37.8"/>
<text text-anchor="middle" x="199" y="-54.2" font-family="Sarabun, 'TH Sarabun New', Tahoma, sans-serif" font-size="11.00">Yes</text>
</g>
<!-- consult -->
<g id="node12" class="node">
<title>consult</title>
<path fill="#fbe6e0" stroke="#cf7a5f" d="M287.5,-36C287.5,-36 219.5,-36 219.5,-36 213.5,-36 207.5,-30 207.5,-24 207.5,-24 207.5,-12 207.5,-12 207.5,-6 213.5,0 219.5,0 219.5,0 287.5,0 287.5,0 293.5,0 299.5,-6 299.5,-12 299.5,-12 299.5,-24 299.5,-24 299.5,-30 293.5,-36 287.5,-36"/>
<text text-anchor="middle" x="253.5" y="-14.6" font-family="Sarabun, 'TH Sarabun New', Tahoma, sans-serif" font-size="13.00">Consult OB&#45;GYN</text>
</g>
<!-- dec2&#45;&gt;consult -->
<g id="edge13" class="edge">
<title>dec2&#45;&gt;consult</title>
<path fill="none" stroke="#5f6b78" d="M253.5,-77.66C253.5,-67.18 253.5,-54.33 253.5,-43.34"/>
<polygon fill="#5f6b78" stroke="#5f6b78" points="255.95,-43.07 253.5,-36.07 251.05,-43.07 255.95,-43.07"/>
<text text-anchor="middle" x="258.5" y="-54.2" font-family="Sarabun, 'TH Sarabun New', Tahoma, sans-serif" font-size="11.00">No</text>
</g>
<!-- mrg&#45;&gt;deliver -->
<g id="edge16" class="edge">
<title>mrg&#45;&gt;deliver</title>
<path fill="none" stroke="#5f6b78" d="M80.5,-375.96C80.5,-374.13 80.5,-315.25 80.5,-268 80.5,-268 80.5,-268 80.5,-98 80.5,-76.87 93.08,-56.46 105.22,-41.68"/>
<polygon fill="#5f6b78" stroke="#5f6b78" points="107.3,-43.01 110,-36.1 103.58,-39.82 107.3,-43.01"/>
</g>
</g>
</svg>
