<svg
 viewBox="0.00 0.00 565.00 779.00" xmlns="http://www.w3.org/2000/svg" xmlns:xlink="http://www.w3.org/1999/xlink">
<g id="graph0" class="graph" transform="scale(1 1) rotate(0) translate(4 775)">
<title>anemia</title>
<polygon fill="white" stroke="transparent" points="-4,4 -4,-775 561,-775 561,4 -4,4"/>
<!-- S -->
<g id="node1" class="node">
<title>S</title>
<path fill="#dfeaf6" stroke="#4f7ab0" d="M205,-771C205,-771 117,-771 117,-771 111,-771 105,-765 105,-759 105,-759 105,-747 105,-747 105,-741 111,-735 117,-735 117,-735 205,-735 205,-735 211,-735 217,-741 217,-747 217,-747 217,-759 217,-759 217,-765 211,-771 205,-771"/>
<text text-anchor="middle" x="161" y="-756.2" font-family="DejaVu Sans" font-size="11.00">First ANC (LAB1)</text>
<text text-anchor="middle" x="161" y="-744.2" font-family="DejaVu Sans" font-size="11.00">check Hb</text>
</g>
<!-- Q1 -->
<g id="node2" class="node">
<title>Q1</title>
<polygon fill="#fdeecf" stroke="#d9a441" points="161,-702 34,-668 161,-634 288,-668 161,-702"/>
<text text-anchor="middle" x="161" y="-671.2" font-family="DejaVu Sans" font-size="11.00">Hb &lt; 11 (1st tri)</text>
<text text-anchor="middle" x="161" y="-659.2" font-family="DejaVu Sans" font-size="11.00">or &lt; 10.5 (2nd tri)?</text>
</g>
<!-- S&#45;&gt;Q1 -->
<g id="edge1" class="edge">
<title>S&#45;&gt;Q1</title>
<path fill="none" stroke="#5f6b78" d="M161,-734.8C161,-727.38 161,-718.37 161,-709.41"/>
<polygon fill="#5f6b78" stroke="#5f6b78" points="163.45,-709.28 161,-702.28 158.55,-709.28 163.45,-709.28"/>
</g>
<!-- N1 -->
<g id="node3" class="node">
<title>N1</title>
<path fill="#eaf1f8" stroke="#7d9bc0" d="M138,-592C138,-592 12,-592 12,-592 6,-592 0,-586 0,-580 0,-580 0,-558 0,-558 0,-552 6,-546 12,-546 12,-546 138,-546 138,-546 144,-546 150,-552 150,-558 150,-558 150,-580 150,-580 150,-586 144,-592 138,-592"/>
<text text-anchor="middle" x="75" y="-578.2" font-family="DejaVu Sans" font-size="11.00">Iron supplement:</text>
<text text-anchor="middle" x="75" y="-566.2" font-family="DejaVu Sans" font-size="11.00">Triferdine 1x1 PO pc, or</text>
<text text-anchor="middle" x="75" y="-554.2" font-family="DejaVu Sans" font-size="11.00">Folic (5) 1x1 PO pc</text>
</g>
<!-- Q1&#45;&gt;N1 -->
<g id="edge2" class="edge">
<title>Q1&#45;&gt;N1</title>
<path fill="none" stroke="#5f6b78" d="M137.27,-640.24C125.53,-626.99 111.36,-611.01 99.51,-597.65"/>
<polygon fill="#5f6b78" stroke="#5f6b78" points="101.06,-595.71 94.59,-592.09 97.4,-598.96 101.06,-595.71"/>
<text text-anchor="middle" x="122.5" y="-610.4" font-family="DejaVu Sans" font-size="9.50">No</text>
</g>
<!-- Q3 -->
<g id="node7" class="node">
<title>Q3</title>
<polygon fill="#fdeecf" stroke="#d9a441" points="248,-587 174.99,-569 248,-551 321.01,-569 248,-587"/>
<text text-anchor="middle" x="248" y="-566.2" font-family="DejaVu Sans" font-size="11.00">MCV / DCIP</text>
</g>
<!-- Q1&#45;&gt;Q3 -->
<g id="edge7" class="edge">
<title>Q1&#45;&gt;Q3</title>
<path fill="none" stroke="#5f6b78" d="M185,-640.24C199.39,-624.2 217.36,-604.16 230.43,-589.59"/>
<polygon fill="#5f6b78" stroke="#5f6b78" points="232.5,-590.95 235.35,-584.11 228.85,-587.68 232.5,-590.95"/>
<text text-anchor="middle" x="221" y="-610.4" font-family="DejaVu Sans" font-size="9.50">Yes</text>
</g>
<!-- N2 -->
<g id="node4" class="node">
<title>N2</title>
<path fill="#eaf1f8" stroke="#7d9bc0" d="M128.5,-494C128.5,-494 21.5,-494 21.5,-494 15.5,-494 9.5,-488 9.5,-482 9.5,-482 9.5,-470 9.5,-470 9.5,-464 15.5,-458 21.5,-458 21.5,-458 128.5,-458 128.5,-458 134.5,-458 140.5,-464 140.5,-470 140.5,-470 140.5,-482 140.5,-482 140.5,-488 134.5,-494 128.5,-494"/>
<text text-anchor="middle" x="75" y="-473.2" font-family="DejaVu Sans" font-size="11.00">CBC at GA 28&#45;32 wk</text>
</g>
<!-- N1&#45;&gt;N2 -->
<g id="edge3" class="edge">
<title>N1&#45;&gt;N2</title>
<path fill="none" stroke="#5f6b78" d="M75,-545.97C75,-532.57 75,-515.42 75,-501.58"/>
<polygon fill="#5f6b78" stroke="#5f6b78" points="77.45,-501.27 75,-494.27 72.55,-501.27 77.45,-501.27"/>
</g>
<!-- Q2 -->
<g id="node5" class="node">
<title>Q2</title>
<polygon fill="#fdeecf" stroke="#d9a441" points="75,-390 10.86,-372 75,-354 139.14,-372 75,-390"/>
<text text-anchor="middle" x="75" y="-369.2" font-family="DejaVu Sans" font-size="11.00">Hb &gt; 11?</text>
</g>
<!-- N2&#45;&gt;Q2 -->
<g id="edge4" class="edge">
<title>N2&#45;&gt;Q2</title>
<path fill="none" stroke="#5f6b78" d="M75,-457.7C75,-441.04 75,-415.7 75,-397.07"/>
<polygon fill="#5f6b78" stroke="#5f6b78" points="77.45,-397.05 75,-390.05 72.55,-397.05 77.45,-397.05"/>
</g>
<!-- E -->
<g id="node6" class="node">
<title>E</title>
<path fill="#e3f3e0" stroke="#69a35a" d="M305,-36C305,-36 239,-36 239,-36 233,-36 227,-30 227,-24 227,-24 227,-12 227,-12 227,-6 233,0 239,0 239,0 305,0 305,0 311,0 317,-6 317,-12 317,-12 317,-24 317,-24 317,-30 311,-36 305,-36"/>
<text text-anchor="middle" x="272" y="-15.2" font-family="DejaVu Sans" font-size="11.00">CBC at labor</text>
</g>
<!-- Q2&#45;&gt;E -->
<g id="edge5" class="edge">
<title>Q2&#45;&gt;E</title>
<path fill="none" stroke="#5f6b78" d="M69.31,-355.54C62.5,-335.59 52,-299.7 52,-268 52,-268 52,-268 52,-97 52,-61.52 154.95,-38.08 220,-26.81"/>
<polygon fill="#5f6b78" stroke="#5f6b78" points="220.46,-29.22 226.95,-25.63 219.64,-24.39 220.46,-29.22"/>
<text text-anchor="middle" x="60" y="-184.4" font-family="DejaVu Sans" font-size="9.50">Yes</text>
</g>
<!-- IDA -->
<g id="node13" class="node">
<title>IDA</title>
<path fill="#eef0f2" stroke="#8a99a8" d="M306,-296C306,-296 122,-296 122,-296 116,-296 110,-290 110,-284 110,-284 110,-250 110,-250 110,-244 116,-238 122,-238 122,-238 306,-238 306,-238 312,-238 318,-244 318,-250 318,-250 318,-284 318,-284 318,-290 312,-296 306,-296"/>
<text text-anchor="middle" x="214" y="-282.2" font-family="DejaVu Sans" font-size="11.00">IDA path:</text>
<text text-anchor="middle" x="214" y="-270.2" font-family="DejaVu Sans" font-size="11.00">iron supplement (Triferdine 1x1 or</text>
<text text-anchor="middle" x="214" y="-258.2" font-family="DejaVu Sans" font-size="11.00">Ferrous fumarate 200 1x2 PO pc)</text>
<text text-anchor="middle" x="214" y="-246.2" font-family="DejaVu Sans" font-size="11.00">F/U 4 wk, CBC</text>
</g>
<!-- Q2&#45;&gt;IDA -->
<g id="edge6" class="edge">
<title>Q2&#45;&gt;IDA</title>
<path fill="none" stroke="#5f6b78" d="M87.74,-357.4C99.94,-344.8 119.23,-325.94 138,-312 143.6,-307.84 149.63,-303.76 155.75,-299.87"/>
<polygon fill="#5f6b78" stroke="#5f6b78" points="157.24,-301.83 161.89,-296.05 154.65,-297.67 157.24,-301.83"/>
<text text-anchor="middle" x="166.5" y="-314.4" font-family="DejaVu Sans" font-size="9.50">No, still low</text>
</g>
<!-- T1 -->
<g id="node8" class="node">
<title>T1</title>
<path fill="#eaf1f8" stroke="#7d9bc0" d="M340,-494C340,-494 290,-494 290,-494 284,-494 278,-488 278,-482 278,-482 278,-470 278,-470 278,-464 284,-458 290,-458 290,-458 340,-458 340,-458 346,-458 352,-464 352,-470 352,-470 352,-482 352,-482 352,-488 346,-494 340,-494"/>
<text text-anchor="middle" x="315" y="-473.2" font-family="DejaVu Sans" font-size="11.00">Hb typing</text>
</g>
<!-- Q3&#45;&gt;T1 -->
<g id="edge8" class="edge">
<title>Q3&#45;&gt;T1</title>
<path fill="none" stroke="#5f6b78" d="M258.76,-553.38C269.37,-538.97 285.74,-516.74 298.09,-499.97"/>
<polygon fill="#5f6b78" stroke="#5f6b78" points="300.26,-501.15 302.44,-494.06 296.31,-498.25 300.26,-501.15"/>
<text text-anchor="middle" x="326.5" y="-522.4" font-family="DejaVu Sans" font-size="9.50">MCV&lt;80, or</text>
<text text-anchor="middle" x="326.5" y="-512.4" font-family="DejaVu Sans" font-size="9.50">&gt;=80 + DCIP+</text>
</g>
<!-- Q3&#45;&gt;IDA -->
<g id="edge15" class="edge">
<title>Q3&#45;&gt;IDA</title>
<path fill="none" stroke="#5f6b78" d="M246.12,-551.44C240.78,-504.25 225.37,-368.29 218.01,-303.35"/>
<polygon fill="#5f6b78" stroke="#5f6b78" points="220.41,-302.84 217.19,-296.16 215.55,-303.39 220.41,-302.84"/>
<text text-anchor="middle" x="254" y="-434.4" font-family="DejaVu Sans" font-size="9.50">&gt;=80 +</text>
<text text-anchor="middle" x="254" y="-424.4" font-family="DejaVu Sans" font-size="9.50">DCIP&#45;</text>
</g>
<!-- Q4 -->
<g id="node9" class="node">
<title>Q4</title>
<polygon fill="#fdeecf" stroke="#d9a441" points="342,-406 252,-372 342,-338 432,-372 342,-406"/>
<text text-anchor="middle" x="342" y="-375.2" font-family="DejaVu Sans" font-size="11.00">Thalassemia</text>
<text text-anchor="middle" x="342" y="-363.2" font-family="DejaVu Sans" font-size="11.00">disease?</text>
</g>
<!-- T1&#45;&gt;Q4 -->
<g id="edge9" class="edge">
<title>T1&#45;&gt;Q4</title>
<path fill="none" stroke="#5f6b78" d="M319.58,-457.7C323.03,-444.67 327.88,-426.33 332.2,-410.04"/>
<polygon fill="#5f6b78" stroke="#5f6b78" points="334.58,-410.6 334,-403.21 329.84,-409.35 334.58,-410.6"/>
</g>
<!-- T2 -->
<g id="node10" class="node">
<title>T2</title>
<path fill="#eaf1f8" stroke="#7d9bc0" d="M479,-290C479,-290 365,-290 365,-290 359,-290 353,-284 353,-278 353,-278 353,-256 353,-256 353,-250 359,-244 365,-244 365,-244 479,-244 479,-244 485,-244 491,-250 491,-256 491,-256 491,-278 491,-278 491,-284 485,-290 479,-290"/>
<text text-anchor="middle" x="422" y="-276.2" font-family="DejaVu Sans" font-size="11.00">Triferdine 1x1 +</text>
<text text-anchor="middle" x="422" y="-264.2" font-family="DejaVu Sans" font-size="11.00">Folic (5) 1x1 PO pc +</text>
<text text-anchor="middle" x="422" y="-252.2" font-family="DejaVu Sans" font-size="11.00">CBC q4wk</text>
</g>
<!-- Q4&#45;&gt;T2 -->
<g id="edge10" class="edge">
<title>Q4&#45;&gt;T2</title>
<path fill="none" stroke="#5f6b78" d="M361.98,-345.27C373.58,-330.34 388.22,-311.5 400.13,-296.16"/>
<polygon fill="#5f6b78" stroke="#5f6b78" points="402.35,-297.29 404.71,-290.26 398.48,-294.28 402.35,-297.29"/>
<text text-anchor="middle" x="394" y="-314.4" font-family="DejaVu Sans" font-size="9.50">Yes</text>
</g>
<!-- Q4&#45;&gt;IDA -->
<g id="edge14" class="edge">
<title>Q4&#45;&gt;IDA</title>
<path fill="none" stroke="#5f6b78" d="M313.91,-348.4C296.57,-334.44 274.03,-316.31 254.75,-300.79"/>
<polygon fill="#5f6b78" stroke="#5f6b78" points="255.87,-298.55 248.88,-296.07 252.8,-302.36 255.87,-298.55"/>
<text text-anchor="middle" x="284.5" y="-314.4" font-family="DejaVu Sans" font-size="9.50">No</text>
</g>
<!-- Q5 -->
<g id="node11" class="node">
<title>Q5</title>
<polygon fill="#fdeecf" stroke="#d9a441" points="433,-205 374.87,-187 433,-169 491.13,-187 433,-205"/>
<text text-anchor="middle" x="433" y="-184.2" font-family="DejaVu Sans" font-size="11.00">Hb &gt; 8?</text>
</g>
<!-- T2&#45;&gt;Q5 -->
<g id="edge11" class="edge">
<title>T2&#45;&gt;Q5</title>
<path fill="none" stroke="#5f6b78" d="M425.12,-243.86C426.53,-233.85 428.2,-222.02 429.64,-211.82"/>
<polygon fill="#5f6b78" stroke="#5f6b78" points="432.09,-212.01 430.64,-204.74 427.24,-211.33 432.09,-212.01"/>
</g>
<!-- Q5&#45;&gt;E -->
<g id="edge13" class="edge">
<title>Q5&#45;&gt;E</title>
<path fill="none" stroke="#5f6b78" d="M461.49,-177.54C484.8,-168.94 516.24,-153.11 531,-127 543.68,-104.56 547.41,-88.88 531,-69 505.33,-37.91 392.44,-25.93 324.46,-21.48"/>
<polygon fill="#5f6b78" stroke="#5f6b78" points="324.35,-19.02 317.21,-21.03 324.04,-23.91 324.35,-19.02"/>
<text text-anchor="middle" x="549" y="-95.4" font-family="DejaVu Sans" font-size="9.50">Yes</text>
</g>
<!-- HR -->
<g id="node12" class="node">
<title>HR</title>
<path fill="#fbe6e0" stroke="#cf7a5f" d="M506.5,-127C506.5,-127 359.5,-127 359.5,-127 353.5,-127 347.5,-121 347.5,-115 347.5,-115 347.5,-81 347.5,-81 347.5,-75 353.5,-69 359.5,-69 359.5,-69 506.5,-69 506.5,-69 512.5,-69 518.5,-75 518.5,-81 518.5,-81 518.5,-115 518.5,-115 518.5,-121 512.5,-127 506.5,-127"/>
<text text-anchor="middle" x="433" y="-113.2" font-family="DejaVu Sans" font-size="11.00">Consult OB &#45; ANC high risk:</text>
<text text-anchor="middle" x="433" y="-101.2" font-family="DejaVu Sans" font-size="11.00">transfuse if Hb &lt; 8;</text>
<text text-anchor="middle" x="433" y="-89.2" font-family="DejaVu Sans" font-size="11.00">regular transfusion if</text>
<text text-anchor="middle" x="433" y="-77.2" font-family="DejaVu Sans" font-size="11.00">maternal symptom / FGR</text>
</g>
<!-- Q5&#45;&gt;HR -->
<g id="edge12" class="edge">
<title>Q5&#45;&gt;HR</title>
<path fill="none" stroke="#5f6b78" d="M433,-168.81C433,-158.97 433,-146.25 433,-134.37"/>
<polygon fill="#5f6b78" stroke="#5f6b78" points="435.45,-134.11 433,-127.11 430.55,-134.11 435.45,-134.11"/>
<text text-anchor="middle" x="439.5" y="-145.4" font-family="DejaVu Sans" font-size="9.50">No</text>
</g>
<!-- Q6 -->
<g id="node14" class="node">
<title>Q6</title>
<polygon fill="#fdeecf" stroke="#d9a441" points="214,-205 147,-187 214,-169 281,-187 214,-205"/>
<text text-anchor="middle" x="214" y="-184.2" font-family="DejaVu Sans" font-size="11.00">Hb rising?</text>
</g>
<!-- IDA&#45;&gt;Q6 -->
<g id="edge16" class="edge">
<title>IDA&#45;&gt;Q6</title>
<path fill="none" stroke="#5f6b78" d="M214,-237.84C214,-229.55 214,-220.56 214,-212.52"/>
<polygon fill="#5f6b78" stroke="#5f6b78" points="216.45,-212.46 214,-205.46 211.55,-212.46 216.45,-212.46"/>
</g>
<!-- Q6&#45;&gt;E -->
<g id="edge17" class="edge">
<title>Q6&#45;&gt;E</title>
<path fill="none" stroke="#5f6b78" d="M230.82,-173.29C243.6,-162.54 260.26,-145.89 268,-127 279.06,-100.02 278.17,-65.99 275.76,-43.41"/>
<polygon fill="#5f6b78" stroke="#5f6b78" points="278.16,-42.88 274.89,-36.23 273.29,-43.47 278.16,-42.88"/>
<text text-anchor="middle" x="285" y="-95.4" font-family="DejaVu Sans" font-size="9.50">Yes</text>
</g>
<!-- C1 -->
<g id="node15" class="node">
<title>C1</title>
<path fill="#eaf1f8" stroke="#7d9bc0" d="M243.5,-121C243.5,-121 102.5,-121 102.5,-121 96.5,-121 90.5,-115 90.5,-109 90.5,-109 90.5,-87 90.5,-87 90.5,-81 96.5,-75 102.5,-75 102.5,-75 243.5,-75 243.5,-75 249.5,-75 255.5,-81 255.5,-87 255.5,-87 255.5,-109 255.5,-109 255.5,-115 249.5,-121 243.5,-121"/>
<text text-anchor="middle" x="173" y="-107.2" font-family="DejaVu Sans" font-size="11.00">Consult OB (evaluate IDA)</text>
<text text-anchor="middle" x="173" y="-95.2" font-family="DejaVu Sans" font-size="11.00">W/U cause: compliance,</text>
<text text-anchor="middle" x="173" y="-83.2" font-family="DejaVu Sans" font-size="11.00">IV iron + oral, nutrition</text>
</g>
<!-- Q6&#45;&gt;C1 -->
<g id="edge18" class="edge">
<title>Q6&#45;&gt;C1</title>
<path fill="none" stroke="#5f6b78" d="M206.86,-170.85C201.25,-158.94 193.27,-142.02 186.47,-127.59"/>
<polygon fill="#5f6b78" stroke="#5f6b78" points="188.64,-126.45 183.44,-121.16 184.21,-128.53 188.64,-126.45"/>
<text text-anchor="middle" x="205.5" y="-145.4" font-family="DejaVu Sans" font-size="9.50">No</text>
</g>
<!-- C1&#45;&gt;E -->
<g id="edge19" class="edge">
<title>C1&#45;&gt;E</title>
<path fill="none" stroke="#5f6b78" d="M201.1,-74.86C214.71,-64.14 230.99,-51.31 244.51,-40.66"/>
<polygon fill="#5f6b78" stroke="#5f6b78" points="246.14,-42.49 250.12,-36.24 243.11,-38.65 246.14,-42.49"/>
</g>
</g>
</svg>
