<svg
 viewBox="0.00 0.00 739.50 908.00" xmlns="http://www.w3.org/2000/svg" xmlns:xlink="http://www.w3.org/1999/xlink">
<g id="graph0" class="graph" transform="scale(1 1) rotate(0) translate(4 904)">
<title>aph</title>
<polygon fill="white" stroke="transparent" points="-4,4 -4,-904 735.5,-904 735.5,4 -4,4"/>
<!-- S -->
<g id="node1" class="node">
<title>S</title>
<path fill="#dfeaf6" stroke="#4f7ab0" d="M368,-900C368,-900 175,-900 175,-900 169,-900 163,-894 163,-888 163,-888 163,-870 163,-870 163,-864 169,-858 175,-858 175,-858 368,-858 368,-858 374,-858 380,-864 380,-870 380,-870 380,-888 380,-888 380,-894 374,-900 368,-900"/>
<text text-anchor="middle" x="271.5" y="-882.6" font-family="Sarabun, 'TH Sarabun New', Tahoma, sans-serif" font-size="13.00">ภาวะตกเลือดก่อนคลอด (Antepartum Hemorrhage)</text>
<text text-anchor="middle" x="271.5" y="-868.6" font-family="Sarabun, 'TH Sarabun New', Tahoma, sans-serif" font-size="13.00">มีเลือดออกทางช่องคลอด</text>
</g>
<!-- Q1 -->
<g id="node2" class="node">
<title>Q1</title>
<polygon fill="#fdeecf" stroke="#d9a441" points="271.5,-827 110.5,-771 271.5,-715 432.5,-771 271.5,-827"/>
<text text-anchor="middle" x="271.5" y="-781.6" font-family="Sarabun, 'TH Sarabun New', Tahoma, sans-serif" font-size="13.00">Vital sign Unstable หรือไม่?</text>
<text text-anchor="middle" x="271.5" y="-767.6" font-family="Sarabun, 'TH Sarabun New', Tahoma, sans-serif" font-size="13.00">(BP &lt; 90/60, MAP &lt; 65, HR ≥ 120,</text>
<text text-anchor="middle" x="271.5" y="-753.6" font-family="Sarabun, 'TH Sarabun New', Tahoma, sans-serif" font-size="13.00">capillary refill &gt; 2 วินาที)</text>
</g>
<!-- S&#45;&gt;Q1 -->
<g id="edge1" class="edge">
<title>S&#45;&gt;Q1</title>
<path fill="none" stroke="#5f6b78" d="M271.5,-857.56C271.5,-850.7 271.5,-842.65 271.5,-834.28"/>
<polygon fill="#5f6b78" stroke="#5f6b78" points="273.95,-834.19 271.5,-827.19 269.05,-834.19 273.95,-834.19"/>
</g>
<!-- U1 -->
<g id="node3" class="node">
<title>U1</title>
<path fill="#eaf1f8" stroke="#7d9bc0" d="M251,-667C251,-667 12,-667 12,-667 6,-667 0,-661 0,-655 0,-655 0,-609 0,-609 0,-603 6,-597 12,-597 12,-597 251,-597 251,-597 257,-597 263,-603 263,-609 263,-609 263,-655 263,-655 263,-661 257,-667 251,-667"/>
<text text-anchor="middle" x="131.5" y="-649.6" font-family="Sarabun, 'TH Sarabun New', Tahoma, sans-serif" font-size="13.00">IV resuscitate: เข็มเบอร์ใหญ่ (No.18) × 2 เส้น</text>
<text text-anchor="middle" x="131.5" y="-635.6" font-family="Sarabun, 'TH Sarabun New', Tahoma, sans-serif" font-size="13.00">+ crystalloid (NSS/RLS) 1000 ml IV load</text>
<text text-anchor="middle" x="131.5" y="-621.6" font-family="Sarabun, 'TH Sarabun New', Tahoma, sans-serif" font-size="13.00">Retain foley cath; O2 cannula 3 LPM หรือ mask+bag 10 LPM</text>
<text text-anchor="middle" x="131.5" y="-607.6" font-family="Sarabun, 'TH Sarabun New', Tahoma, sans-serif" font-size="13.00">Lab: CBC+Platelet, cross&#45;match PRC, PT/PTT/INR</text>
</g>
<!-- Q1&#45;&gt;U1 -->
<g id="edge2" class="edge">
<title>Q1&#45;&gt;U1</title>
<path fill="none" stroke="#5f6b78" d="M229.87,-729.27C211.46,-711.24 189.88,-690.13 171.64,-672.28"/>
<polygon fill="#5f6b78" stroke="#5f6b78" points="173.3,-670.48 166.59,-667.33 169.88,-673.98 173.3,-670.48"/>
<text text-anchor="middle" x="217.5" y="-692" font-family="Sarabun, 'TH Sarabun New', Tahoma, sans-serif" font-size="10.00">ใช่ (unstable)</text>
</g>
<!-- St1 -->
<g id="node5" class="node">
<title>St1</title>
<path fill="#eaf1f8" stroke="#7d9bc0" d="M528,-674C528,-674 297,-674 297,-674 291,-674 285,-668 285,-662 285,-662 285,-602 285,-602 285,-596 291,-590 297,-590 297,-590 528,-590 528,-590 534,-590 540,-596 540,-602 540,-602 540,-662 540,-662 540,-668 534,-674 528,-674"/>
<text text-anchor="middle" x="412.5" y="-656.6" font-family="Sarabun, 'TH Sarabun New', Tahoma, sans-serif" font-size="13.00">ซักประวัติเลือดออก (ลักษณะ, ปริมาณ, anemic symptom)</text>
<text text-anchor="middle" x="412.5" y="-642.6" font-family="Sarabun, 'TH Sarabun New', Tahoma, sans-serif" font-size="13.00">Speculum (ปริมาณเลือด, lesion, Os open?, placental base?)</text>
<text text-anchor="middle" x="412.5" y="-628.6" font-family="Sarabun, 'TH Sarabun New', Tahoma, sans-serif" font-size="13.00">**ห้าม PV ก่อนทำ U/S หา location รก</text>
<text text-anchor="middle" x="412.5" y="-614.6" font-family="Sarabun, 'TH Sarabun New', Tahoma, sans-serif" font-size="13.00">U/S ตำแหน่งรก, retroplacental clot, ประเมินทารก</text>
<text text-anchor="middle" x="412.5" y="-600.6" font-family="Sarabun, 'TH Sarabun New', Tahoma, sans-serif" font-size="13.00">ถ้า GA ≥ 28 สัปดาห์ ทำ NST</text>
</g>
<!-- Q1&#45;&gt;St1 -->
<g id="edge5" class="edge">
<title>Q1&#45;&gt;St1</title>
<path fill="none" stroke="#5f6b78" d="M313.42,-729.27C329.61,-713.54 348.21,-695.46 364.9,-679.25"/>
<polygon fill="#5f6b78" stroke="#5f6b78" points="366.69,-680.92 370.01,-674.29 363.28,-677.41 366.69,-680.92"/>
<text text-anchor="middle" x="373.5" y="-692" font-family="Sarabun, 'TH Sarabun New', Tahoma, sans-serif" font-size="10.00">ไม่ใช่ (stable)</text>
</g>
<!-- U2 -->
<g id="node4" class="node">
<title>U2</title>
<path fill="#eaf1f8" stroke="#7d9bc0" d="M227,-488C227,-488 36,-488 36,-488 30,-488 24,-482 24,-476 24,-476 24,-444 24,-444 24,-438 30,-432 36,-432 36,-432 227,-432 227,-432 233,-432 239,-438 239,-444 239,-444 239,-476 239,-476 239,-482 233,-488 227,-488"/>
<text text-anchor="middle" x="131.5" y="-470.6" font-family="Sarabun, 'TH Sarabun New', Tahoma, sans-serif" font-size="13.00">V/S เริ่มคงที่: ซักประวัติเลือดออก, Speculum</text>
<text text-anchor="middle" x="131.5" y="-456.6" font-family="Sarabun, 'TH Sarabun New', Tahoma, sans-serif" font-size="13.00">**ห้าม PV ก่อนทำ U/S หา location รก</text>
<text text-anchor="middle" x="131.5" y="-442.6" font-family="Sarabun, 'TH Sarabun New', Tahoma, sans-serif" font-size="13.00">U/S ประเมินตำแหน่งรก, FHR; monitor FHR + NST</text>
</g>
<!-- U1&#45;&gt;U2 -->
<g id="edge3" class="edge">
<title>U1&#45;&gt;U2</title>
<path fill="none" stroke="#5f6b78" d="M131.5,-596.6C131.5,-567.08 131.5,-524.77 131.5,-495.29"/>
<polygon fill="#5f6b78" stroke="#5f6b78" points="133.95,-495.08 131.5,-488.08 129.05,-495.08 133.95,-495.08"/>
</g>
<!-- CU -->
<g id="node13" class="node">
<title>CU</title>
<path fill="#e3f3e0" stroke="#69a35a" d="M388.5,-157C388.5,-157 274.5,-157 274.5,-157 268.5,-157 262.5,-151 262.5,-145 262.5,-145 262.5,-133 262.5,-133 262.5,-127 268.5,-121 274.5,-121 274.5,-121 388.5,-121 388.5,-121 394.5,-121 400.5,-127 400.5,-133 400.5,-133 400.5,-145 400.5,-145 400.5,-151 394.5,-157 388.5,-157"/>
<text text-anchor="middle" x="331.5" y="-135.6" font-family="Sarabun, 'TH Sarabun New', Tahoma, sans-serif" font-size="13.00">ปรึกษาสูติแพทย์เพื่อส่งต่อผู้ป่วย</text>
</g>
<!-- U2&#45;&gt;CU -->
<g id="edge4" class="edge">
<title>U2&#45;&gt;CU</title>
<path fill="none" stroke="#5f6b78" d="M125.52,-431.96C116.15,-382.13 103.94,-274.83 154.5,-208 178.33,-176.5 218.71,-159.59 254.89,-150.51"/>
<polygon fill="#5f6b78" stroke="#5f6b78" points="255.83,-152.81 262.07,-148.8 254.69,-148.04 255.83,-152.81"/>
</g>
<!-- Q2 -->
<g id="node6" class="node">
<title>Q2</title>
<polygon fill="#fdeecf" stroke="#d9a441" points="412.5,-559 323.5,-531 412.5,-503 501.5,-531 412.5,-559"/>
<text text-anchor="middle" x="412.5" y="-527.6" font-family="Sarabun, 'TH Sarabun New', Tahoma, sans-serif" font-size="13.00">สงสัย รกเกาะต่ำ?</text>
</g>
<!-- St1&#45;&gt;Q2 -->
<g id="edge6" class="edge">
<title>St1&#45;&gt;Q2</title>
<path fill="none" stroke="#5f6b78" d="M412.5,-589.88C412.5,-582.07 412.5,-573.97 412.5,-566.4"/>
<polygon fill="#5f6b78" stroke="#5f6b78" points="414.95,-566.03 412.5,-559.03 410.05,-566.03 414.95,-566.03"/>
</g>
<!-- Q3 -->
<g id="node7" class="node">
<title>Q3</title>
<polygon fill="#fdeecf" stroke="#d9a441" points="289.5,-417 177.5,-375 289.5,-333 401.5,-375 289.5,-417"/>
<text text-anchor="middle" x="289.5" y="-378.6" font-family="Sarabun, 'TH Sarabun New', Tahoma, sans-serif" font-size="13.00">มี uterine contraction</text>
<text text-anchor="middle" x="289.5" y="-364.6" font-family="Sarabun, 'TH Sarabun New', Tahoma, sans-serif" font-size="13.00">หรือ active bleeding?</text>
</g>
<!-- Q2&#45;&gt;Q3 -->
<g id="edge7" class="edge">
<title>Q2&#45;&gt;Q3</title>
<path fill="none" stroke="#5f6b78" d="M395.14,-508.26C375.52,-483.7 343.24,-443.28 319.51,-413.58"/>
<polygon fill="#5f6b78" stroke="#5f6b78" points="321.17,-411.73 314.89,-407.79 317.34,-414.79 321.17,-411.73"/>
<text text-anchor="middle" x="383" y="-457.5" font-family="Sarabun, 'TH Sarabun New', Tahoma, sans-serif" font-size="10.00">สงสัย</text>
</g>
<!-- Q4 -->
<g id="node9" class="node">
<title>Q4</title>
<polygon fill="#fdeecf" stroke="#d9a441" points="577.5,-417 423.5,-375 577.5,-333 731.5,-375 577.5,-417"/>
<text text-anchor="middle" x="577.5" y="-378.6" font-family="Sarabun, 'TH Sarabun New', Tahoma, sans-serif" font-size="13.00">uterine tachysystole?</text>
<text text-anchor="middle" x="577.5" y="-364.6" font-family="Sarabun, 'TH Sarabun New', Tahoma, sans-serif" font-size="13.00">(มดลูกหดรัดตัว &gt; 5 ครั้งใน 10 นาที)</text>
</g>
<!-- Q2&#45;&gt;Q4 -->
<g id="edge11" class="edge">
<title>Q2&#45;&gt;Q4</title>
<path fill="none" stroke="#5f6b78" d="M434.41,-509.55C460.76,-484.95 505.5,-443.2 537.94,-412.92"/>
<polygon fill="#5f6b78" stroke="#5f6b78" points="540,-414.35 543.44,-407.78 536.66,-410.77 540,-414.35"/>
<text text-anchor="middle" x="525" y="-457.5" font-family="Sarabun, 'TH Sarabun New', Tahoma, sans-serif" font-size="10.00">ไม่สงสัย</text>
</g>
<!-- P1 -->
<g id="node8" class="node">
<title>P1</title>
<path fill="#eaf1f8" stroke="#7d9bc0" d="M275.5,-268C275.5,-268 177.5,-268 177.5,-268 171.5,-268 165.5,-262 165.5,-256 165.5,-256 165.5,-244 165.5,-244 165.5,-238 171.5,-232 177.5,-232 177.5,-232 275.5,-232 275.5,-232 281.5,-232 287.5,-238 287.5,-244 287.5,-244 287.5,-256 287.5,-256 287.5,-262 281.5,-268 275.5,-268"/>
<text text-anchor="middle" x="226.5" y="-246.6" font-family="Sarabun, 'TH Sarabun New', Tahoma, sans-serif" font-size="13.00">IV resuscitate + Hct stat</text>
</g>
<!-- Q3&#45;&gt;P1 -->
<g id="edge8" class="edge">
<title>Q3&#45;&gt;P1</title>
<path fill="none" stroke="#5f6b78" d="M271.78,-339.41C261.15,-318.65 247.91,-292.8 238.5,-274.43"/>
<polygon fill="#5f6b78" stroke="#5f6b78" points="240.59,-273.13 235.22,-268.02 236.23,-275.37 240.59,-273.13"/>
<text text-anchor="middle" x="264" y="-310" font-family="Sarabun, 'TH Sarabun New', Tahoma, sans-serif" font-size="10.00">ใช่</text>
</g>
<!-- Q3&#45;&gt;CU -->
<g id="edge10" class="edge">
<title>Q3&#45;&gt;CU</title>
<path fill="none" stroke="#5f6b78" d="M296.44,-335.36C305.17,-286.72 319.9,-204.65 327.17,-164.12"/>
<polygon fill="#5f6b78" stroke="#5f6b78" points="329.61,-164.38 328.44,-157.06 324.79,-163.52 329.61,-164.38"/>
<text text-anchor="middle" x="326" y="-247.5" font-family="Sarabun, 'TH Sarabun New', Tahoma, sans-serif" font-size="10.00">ไม่ใช่</text>
</g>
<!-- P1&#45;&gt;CU -->
<g id="edge9" class="edge">
<title>P1&#45;&gt;CU</title>
<path fill="none" stroke="#5f6b78" d="M242.91,-231.97C260.91,-213.28 289.88,-183.2 309.76,-162.56"/>
<polygon fill="#5f6b78" stroke="#5f6b78" points="311.77,-164.01 314.86,-157.27 308.24,-160.61 311.77,-164.01"/>
</g>
<!-- Ab -->
<g id="node10" class="node">
<title>Ab</title>
<path fill="#fbe6e0" stroke="#cf7a5f" d="M480.5,-268C480.5,-268 378.5,-268 378.5,-268 372.5,-268 366.5,-262 366.5,-256 366.5,-256 366.5,-244 366.5,-244 366.5,-238 372.5,-232 378.5,-232 378.5,-232 480.5,-232 480.5,-232 486.5,-232 492.5,-238 492.5,-244 492.5,-244 492.5,-256 492.5,-256 492.5,-262 486.5,-268 480.5,-268"/>
<text text-anchor="middle" x="429.5" y="-246.6" font-family="Sarabun, 'TH Sarabun New', Tahoma, sans-serif" font-size="13.00">สงสัย รกลอกตัวก่อนกำหนด</text>
</g>
<!-- Q4&#45;&gt;Ab -->
<g id="edge12" class="edge">
<title>Q4&#45;&gt;Ab</title>
<path fill="none" stroke="#5f6b78" d="M540.15,-342.96C513.83,-321.09 479.24,-292.34 455.79,-272.85"/>
<polygon fill="#5f6b78" stroke="#5f6b78" points="457.32,-270.94 450.37,-268.35 454.19,-274.7 457.32,-270.94"/>
<text text-anchor="middle" x="511" y="-310" font-family="Sarabun, 'TH Sarabun New', Tahoma, sans-serif" font-size="10.00">ใช่</text>
</g>
<!-- Q5 -->
<g id="node11" class="node">
<title>Q5</title>
<polygon fill="#fdeecf" stroke="#d9a441" points="613.5,-292 514.5,-250 613.5,-208 712.5,-250 613.5,-292"/>
<text text-anchor="middle" x="613.5" y="-253.6" font-family="Sarabun, 'TH Sarabun New', Tahoma, sans-serif" font-size="13.00">GA ≥ 37 สัปดาห์</text>
<text text-anchor="middle" x="613.5" y="-239.6" font-family="Sarabun, 'TH Sarabun New', Tahoma, sans-serif" font-size="13.00">และ NST reactive?</text>
</g>
<!-- Q4&#45;&gt;Q5 -->
<g id="edge14" class="edge">
<title>Q4&#45;&gt;Q5</title>
<path fill="none" stroke="#5f6b78" d="M588.69,-335.76C592.52,-322.66 596.84,-307.92 600.78,-294.45"/>
<polygon fill="#5f6b78" stroke="#5f6b78" points="603.19,-294.94 602.81,-287.54 598.49,-293.57 603.19,-294.94"/>
<text text-anchor="middle" x="603" y="-310" font-family="Sarabun, 'TH Sarabun New', Tahoma, sans-serif" font-size="10.00">ไม่ใช่</text>
</g>
<!-- Ab&#45;&gt;CU -->
<g id="edge13" class="edge">
<title>Ab&#45;&gt;CU</title>
<path fill="none" stroke="#5f6b78" d="M414.19,-231.97C397.39,-213.28 370.34,-183.2 351.79,-162.56"/>
<polygon fill="#5f6b78" stroke="#5f6b78" points="353.53,-160.84 347.03,-157.27 349.89,-164.11 353.53,-160.84"/>
</g>
<!-- Adm -->
<g id="node12" class="node">
<title>Adm</title>
<path fill="#e3f3e0" stroke="#69a35a" d="M674.5,-167C674.5,-167 552.5,-167 552.5,-167 546.5,-167 540.5,-161 540.5,-155 540.5,-155 540.5,-123 540.5,-123 540.5,-117 546.5,-111 552.5,-111 552.5,-111 674.5,-111 674.5,-111 680.5,-111 686.5,-117 686.5,-123 686.5,-123 686.5,-155 686.5,-155 686.5,-161 680.5,-167 674.5,-167"/>
<text text-anchor="middle" x="613.5" y="-149.6" font-family="Sarabun, 'TH Sarabun New', Tahoma, sans-serif" font-size="13.00">Admit รพช. ดูอาการเปลี่ยนแปลง</text>
<text text-anchor="middle" x="613.5" y="-135.6" font-family="Sarabun, 'TH Sarabun New', Tahoma, sans-serif" font-size="13.00">ส่งตัวต่อตามข้อบ่งชี้อื่นๆ</text>
<text text-anchor="middle" x="613.5" y="-121.6" font-family="Sarabun, 'TH Sarabun New', Tahoma, sans-serif" font-size="13.00">+ ส่งตรวจ CBC ดู Hct baseline</text>
</g>
<!-- Q5&#45;&gt;Adm -->
<g id="edge15" class="edge">
<title>Q5&#45;&gt;Adm</title>
<path fill="none" stroke="#5f6b78" d="M613.5,-207.79C613.5,-196.72 613.5,-184.87 613.5,-174.23"/>
<polygon fill="#5f6b78" stroke="#5f6b78" points="615.95,-174.07 613.5,-167.07 611.05,-174.07 615.95,-174.07"/>
<text text-anchor="middle" x="617" y="-185" font-family="Sarabun, 'TH Sarabun New', Tahoma, sans-serif" font-size="10.00">ใช่</text>
</g>
<!-- Q5&#45;&gt;CU -->
<g id="edge16" class="edge">
<title>Q5&#45;&gt;CU</title>
<path fill="none" stroke="#5f6b78" d="M562.76,-229.39C511.77,-209.68 433.61,-179.47 382.52,-159.72"/>
<polygon fill="#5f6b78" stroke="#5f6b78" points="383.22,-157.36 375.8,-157.12 381.45,-161.93 383.22,-157.36"/>
<text text-anchor="middle" x="470" y="-185" font-family="Sarabun, 'TH Sarabun New', Tahoma, sans-serif" font-size="10.00">ไม่ใช่</text>
</g>
<!-- Note -->
<g id="node14" class="node">
<title>Note</title>
<path fill="#f6f2e7" stroke="#c2b283" d="M503.5,-70C503.5,-70 159.5,-70 159.5,-70 153.5,-70 147.5,-64 147.5,-58 147.5,-58 147.5,-12 147.5,-12 147.5,-6 153.5,0 159.5,0 159.5,0 503.5,0 503.5,0 509.5,0 515.5,-6 515.5,-12 515.5,-12 515.5,-58 515.5,-58 515.5,-64 509.5,-70 503.5,-70"/>
<text text-anchor="middle" x="331.5" y="-52.6" font-family="Sarabun, 'TH Sarabun New', Tahoma, sans-serif" font-size="13.00">ก่อนส่งตัวทุกราย: NPO; เปิดเส้น (No.18) NSS 1,000 ml IV drip 100&#45;120 ml/hr</text>
<text text-anchor="middle" x="331.5" y="-38.6" font-family="Sarabun, 'TH Sarabun New', Tahoma, sans-serif" font-size="13.00">On O2; Lab: CBC+Platelet, cross&#45;match PRC, PT/PTT/INR</text>
<text text-anchor="middle" x="331.5" y="-24.6" font-family="Sarabun, 'TH Sarabun New', Tahoma, sans-serif" font-size="13.00">NST + monitor FHR ระหว่าง refer; ถ้า GA &lt; 34 wk start Dexamethasone 6 mg IM q 12 hr</text>
<text text-anchor="middle" x="331.5" y="-10.6" font-family="Sarabun, 'TH Sarabun New', Tahoma, sans-serif" font-size="13.00">ยา tocolysis และ MgSO4 for neuroprotection ให้ปรึกษาสูติแพทย์ที่รับ refer เป็นกรณีไป</text>
</g>
<!-- CU&#45;&gt;Note -->
<g id="edge17" class="edge">
<title>CU&#45;&gt;Note</title>
<path fill="none" stroke="#5f6b78" stroke-dasharray="5,2" d="M331.5,-120.7C331.5,-106.94 331.5,-87.27 331.5,-70.34"/>
<text text-anchor="middle" x="344.5" y="-88" font-family="Sarabun, 'TH Sarabun New', Tahoma, sans-serif" font-size="10.00">ก่อนส่งตัว</text>
</g>
</g>
</svg>
