<svg
 viewBox="0.00 0.00 393.00 665.00" xmlns="http://www.w3.org/2000/svg" xmlns:xlink="http://www.w3.org/1999/xlink">
<g id="graph0" class="graph" transform="scale(1 1) rotate(0) translate(4 661)">
<title>ts</title>
<polygon fill="white" stroke="transparent" points="-4,4 -4,-661 389,-661 389,4 -4,4"/>
<!-- CHK -->
<g id="node1" class="node">
<title>CHK</title>
<path fill="#f6f2e7" stroke="#c2b283" d="M302.5,-657C302.5,-657 42.5,-657 42.5,-657 36.5,-657 30.5,-651 30.5,-645 30.5,-645 30.5,-599 30.5,-599 30.5,-593 36.5,-587 42.5,-587 42.5,-587 302.5,-587 302.5,-587 308.5,-587 314.5,-593 314.5,-599 314.5,-599 314.5,-645 314.5,-645 314.5,-651 308.5,-657 302.5,-657"/>
<text text-anchor="middle" x="172.5" y="-639.6" font-family="Sarabun, 'TH Sarabun New', Tahoma, sans-serif" font-size="13.00">หลังคลอด</text>
<text text-anchor="middle" x="172.5" y="-625.6" font-family="Sarabun, 'TH Sarabun New', Tahoma, sans-serif" font-size="13.00">• Oxytocin 10 u IM</text>
<text text-anchor="middle" x="172.5" y="-611.6" font-family="Sarabun, 'TH Sarabun New', Tahoma, sans-serif" font-size="13.00">• ใส่ถุงตวงเลือดทุกราย</text>
<text text-anchor="middle" x="172.5" y="-597.6" font-family="Sarabun, 'TH Sarabun New', Tahoma, sans-serif" font-size="13.00">• รายเสี่ยงตกเลือด: เตรียม PPH Box / แจ้งสูติแพทย์ / T/S PRC 2 units</text>
</g>
<!-- P1 -->
<g id="node2" class="node">
<title>P1</title>
<path fill="#dfeaf6" stroke="#4f7ab0" d="M283,-556C283,-556 62,-556 62,-556 56,-556 50,-550 50,-544 50,-544 50,-532 50,-532 50,-526 56,-520 62,-520 62,-520 283,-520 283,-520 289,-520 295,-526 295,-532 295,-532 295,-544 295,-544 295,-550 289,-556 283,-556"/>
<text text-anchor="middle" x="172.5" y="-534.6" font-family="Sarabun, 'TH Sarabun New', Tahoma, sans-serif" font-size="13.00">Postpartum blood loss ≥ 250 ml → ALERT (เริ่มจับเวลา)</text>
</g>
<!-- CHK&#45;&gt;P1 -->
<g id="edge1" class="edge">
<title>CHK&#45;&gt;P1</title>
<path fill="none" stroke="#5f6b78" d="M172.5,-586.7C172.5,-578.8 172.5,-570.56 172.5,-563.19"/>
<polygon fill="#5f6b78" stroke="#5f6b78" points="174.95,-563.16 172.5,-556.16 170.05,-563.16 174.95,-563.16"/>
</g>
<!-- E -->
<g id="node3" class="node">
<title>E</title>
<path fill="#fbf4d9" stroke="#d9b96a" d="M313.5,-489C313.5,-489 31.5,-489 31.5,-489 25.5,-489 19.5,-483 19.5,-477 19.5,-477 19.5,-403 19.5,-403 19.5,-397 25.5,-391 31.5,-391 31.5,-391 313.5,-391 313.5,-391 319.5,-391 325.5,-397 325.5,-403 325.5,-403 325.5,-477 325.5,-477 325.5,-483 319.5,-489 313.5,-489"/>
<text text-anchor="middle" x="172.5" y="-471.6" font-family="Sarabun, 'TH Sarabun New', Tahoma, sans-serif" font-size="13.00">Evaluation and Initial management (≤ 15 นาที)</text>
<text text-anchor="middle" x="172.5" y="-457.6" font-family="Sarabun, 'TH Sarabun New', Tahoma, sans-serif" font-size="13.00">• Uterine massage ประเมิน tone; ตามแพทย์ใช้ทุน</text>
<text text-anchor="middle" x="172.5" y="-443.6" font-family="Sarabun, 'TH Sarabun New', Tahoma, sans-serif" font-size="13.00">• Empty bladder / Foley cath</text>
<text text-anchor="middle" x="172.5" y="-429.6" font-family="Sarabun, 'TH Sarabun New', Tahoma, sans-serif" font-size="13.00">• NSS/RLS 1000 ml + Oxytocin 40 u IV 125 ml/hr</text>
<text text-anchor="middle" x="172.5" y="-415.6" font-family="Sarabun, 'TH Sarabun New', Tahoma, sans-serif" font-size="13.00">• หาสาเหตุ: atony / cervical tear / vaginal laceration / retained placenta</text>
<text text-anchor="middle" x="172.5" y="-401.6" font-family="Sarabun, 'TH Sarabun New', Tahoma, sans-serif" font-size="13.00">• เตรียม O2 mask with bag, PPH Box, ตาม Rescue team และสูติแพทย์</text>
</g>
<!-- P1&#45;&gt;E -->
<g id="edge2" class="edge">
<title>P1&#45;&gt;E</title>
<path fill="none" stroke="#5f6b78" d="M172.5,-519.84C172.5,-513.1 172.5,-504.95 172.5,-496.48"/>
<polygon fill="#5f6b78" stroke="#5f6b78" points="174.95,-496.32 172.5,-489.32 170.05,-496.32 174.95,-496.32"/>
</g>
<!-- ALERT2 -->
<g id="node4" class="node">
<title>ALERT2</title>
<path fill="#f6c1c1" stroke="#c0392b" d="M274,-360C274,-360 71,-360 71,-360 65,-360 59,-354 59,-348 59,-348 59,-336 59,-336 59,-330 65,-324 71,-324 71,-324 274,-324 274,-324 280,-324 286,-330 286,-336 286,-336 286,-348 286,-348 286,-354 280,-360 274,-360"/>
<text text-anchor="middle" x="172.5" y="-338.6" font-family="Sarabun, 'TH Sarabun New', Tahoma, sans-serif" font-size="13.00">Active bleed / Blood loss ≥ 500 ml &#45;&gt; ประกาศ PPH</text>
</g>
<!-- E&#45;&gt;ALERT2 -->
<g id="edge3" class="edge">
<title>E&#45;&gt;ALERT2</title>
<path fill="none" stroke="#5f6b78" d="M172.5,-391C172.5,-382.88 172.5,-374.75 172.5,-367.56"/>
<polygon fill="#5f6b78" stroke="#5f6b78" points="174.95,-367.16 172.5,-360.16 170.05,-367.16 174.95,-367.16"/>
</g>
<!-- F -->
<g id="node5" class="node">
<title>F</title>
<path fill="#f6dfe0" stroke="#c07a86" d="M333,-293C333,-293 12,-293 12,-293 6,-293 0,-287 0,-281 0,-281 0,-151 0,-151 0,-145 6,-139 12,-139 12,-139 333,-139 333,-139 339,-139 345,-145 345,-151 345,-151 345,-281 345,-281 345,-287 339,-293 333,-293"/>
<text text-anchor="middle" x="172.5" y="-275.6" font-family="Sarabun, 'TH Sarabun New', Tahoma, sans-serif" font-size="13.00">Further management (15&#45;45 นาที)</text>
<text text-anchor="middle" x="172.5" y="-261.6" font-family="Sarabun, 'TH Sarabun New', Tahoma, sans-serif" font-size="13.00">• CALL FOR HELP (Rescue team + สูติแพทย์) [พว1]</text>
<text text-anchor="middle" x="172.5" y="-247.6" font-family="Sarabun, 'TH Sarabun New', Tahoma, sans-serif" font-size="13.00">• O2 mask with bag 10 LPM [พว2]</text>
<text text-anchor="middle" x="172.5" y="-233.6" font-family="Sarabun, 'TH Sarabun New', Tahoma, sans-serif" font-size="13.00">ใช้ PPH Box + Standing order:</text>
<text text-anchor="middle" x="172.5" y="-219.6" font-family="Sarabun, 'TH Sarabun New', Tahoma, sans-serif" font-size="13.00">• เปิด IV เส้นที่สอง RLS 1000 ml free flow [พว3]</text>
<text text-anchor="middle" x="172.5" y="-205.6" font-family="Sarabun, 'TH Sarabun New', Tahoma, sans-serif" font-size="13.00">• Transamine 1 g + NSS 100 ml IV drip in 15 min [พว2]</text>
<text text-anchor="middle" x="172.5" y="-191.6" font-family="Sarabun, 'TH Sarabun New', Tahoma, sans-serif" font-size="13.00">• Methergine 0.2 mg (ไม่มี HT / ไม่ใช่ HIV) IV slow push</text>
<text text-anchor="middle" x="172.5" y="-177.6" font-family="Sarabun, 'TH Sarabun New', Tahoma, sans-serif" font-size="13.00">• Blood: CBC, BUN, Cr, electrolyte, LFT, PT/PTT/INR [ประสาน LAB ด่วน]</text>
<text text-anchor="middle" x="172.5" y="-163.6" font-family="Sarabun, 'TH Sarabun New', Tahoma, sans-serif" font-size="13.00">• G/M PRC 4 u, FFP 4 u, Platelet SDP 1 u [ประสานคลังเลือด]</text>
<text text-anchor="middle" x="172.5" y="-149.6" font-family="Sarabun, 'TH Sarabun New', Tahoma, sans-serif" font-size="13.00">• พิจารณา 2nd line uterotonic / surgical [ประสานวิสัญญี / ห้องผ่าตัด / จอง ICU] [พว1]</text>
</g>
<!-- ALERT2&#45;&gt;F -->
<g id="edge4" class="edge">
<title>ALERT2&#45;&gt;F</title>
<path fill="none" stroke="#5f6b78" d="M172.5,-323.76C172.5,-317.14 172.5,-309.07 172.5,-300.36"/>
<polygon fill="#5f6b78" stroke="#5f6b78" points="174.95,-300.25 172.5,-293.25 170.05,-300.25 174.95,-300.25"/>
</g>
<!-- END -->
<g id="node6" class="node">
<title>END</title>
<path fill="#e3f3e0" stroke="#69a35a" d="M109,-67C109,-67 50,-67 50,-67 44,-67 38,-61 38,-55 38,-55 38,-43 38,-43 38,-37 44,-31 50,-31 50,-31 109,-31 109,-31 115,-31 121,-37 121,-43 121,-43 121,-55 121,-55 121,-61 115,-67 109,-67"/>
<text text-anchor="middle" x="79.5" y="-45.6" font-family="Sarabun, 'TH Sarabun New', Tahoma, sans-serif" font-size="13.00">หยุดเลือดสำเร็จ</text>
</g>
<!-- F&#45;&gt;END -->
<g id="edge5" class="edge">
<title>F&#45;&gt;END</title>
<path fill="none" stroke="#5f6b78" d="M129.54,-138.78C116.18,-115.07 102.42,-90.67 92.73,-73.47"/>
<polygon fill="#5f6b78" stroke="#5f6b78" points="94.66,-71.91 89.09,-67.01 90.39,-74.31 94.66,-71.91"/>
</g>
<!-- ROLES -->
<g id="node7" class="node">
<title>ROLES</title>
<path fill="#e6f1fb" stroke="#7d9bc0" d="M373,-98C373,-98 158,-98 158,-98 152,-98 146,-92 146,-86 146,-86 146,-12 146,-12 146,-6 152,0 158,0 158,0 373,0 373,0 379,0 385,-6 385,-12 385,-12 385,-86 385,-86 385,-92 379,-98 373,-98"/>
<text text-anchor="middle" x="265.5" y="-80.6" font-family="Sarabun, 'TH Sarabun New', Tahoma, sans-serif" font-size="13.00">TeamSTEPPS roles</text>
<text text-anchor="middle" x="265.5" y="-66.6" font-family="Sarabun, 'TH Sarabun New', Tahoma, sans-serif" font-size="13.00">• พว1 In charge: ให้ข้อมูลแพทย์ / แบ่งหน้าที่ / ประสานงาน</text>
<text text-anchor="middle" x="265.5" y="-52.6" font-family="Sarabun, 'TH Sarabun New', Tahoma, sans-serif" font-size="13.00">• พว2: Manage IV, V/S, I/O</text>
<text text-anchor="middle" x="265.5" y="-38.6" font-family="Sarabun, 'TH Sarabun New', Tahoma, sans-serif" font-size="13.00">• พว3: ช่วยเหลือแพทย์</text>
<text text-anchor="middle" x="265.5" y="-24.6" font-family="Sarabun, 'TH Sarabun New', Tahoma, sans-serif" font-size="13.00">• ผู้ช่วยพยาบาล: จัดเตรียมอุปกรณ์/เครื่องมือ</text>
<text text-anchor="middle" x="265.5" y="-10.6" font-family="Sarabun, 'TH Sarabun New', Tahoma, sans-serif" font-size="13.00">หมายเหตุ: อาจสลับหน้าที่ พว2 และ พว3 ตามความเหมาะสม</text>
</g>
<!-- F&#45;&gt;ROLES -->
<g id="edge6" class="edge">
<title>F&#45;&gt;ROLES</title>
<path fill="none" stroke="#5f6b78" stroke-dasharray="5,2" d="M215.46,-138.78C223.27,-124.93 231.21,-110.85 238.39,-98.1"/>
<text text-anchor="middle" x="241.5" y="-116" font-family="Sarabun, 'TH Sarabun New', Tahoma, sans-serif" font-size="10.00">บทบาททีม</text>
</g>
</g>
</svg>
