<svg
 viewBox="0.00 0.00 1042.00 901.00" xmlns="http://www.w3.org/2000/svg" xmlns:xlink="http://www.w3.org/1999/xlink">
<g id="graph0" class="graph" transform="scale(1 1) rotate(0) translate(4 897)">
<title>aph</title>
<polygon fill="white" stroke="transparent" points="-4,4 -4,-897 1038,-897 1038,4 -4,4"/>
<!-- S -->
<g id="node1" class="node">
<title>S</title>
<path fill="#dfeaf6" stroke="#4f7ab0" d="M548,-893C548,-893 274,-893 274,-893 268,-893 262,-887 262,-881 262,-881 262,-863 262,-863 262,-857 268,-851 274,-851 274,-851 548,-851 548,-851 554,-851 560,-857 560,-863 560,-863 560,-881 560,-881 560,-887 554,-893 548,-893"/>
<text text-anchor="middle" x="411" y="-875.4" font-family="Sarabun" font-size="12.00">ภาวะตกเลือดก่อนคลอด (Antepartum Hemorrhage)</text>
<text text-anchor="middle" x="411" y="-862.4" font-family="Sarabun" font-size="12.00">มีเลือดออกทางช่องคลอด</text>
</g>
<!-- Q1 -->
<g id="node2" class="node">
<title>Q1</title>
<polygon fill="#fdeecf" stroke="#d9a441" points="411,-820 145,-765 411,-710 677,-765 411,-820"/>
<text text-anchor="middle" x="411" y="-774.9" font-family="Sarabun" font-size="12.00">Vital sign Unstable หรือไม่?</text>
<text text-anchor="middle" x="411" y="-761.9" font-family="Sarabun" font-size="12.00">(BP &lt; 90/60, MAP &lt; 65, HR ≥ 120,</text>
<text text-anchor="middle" x="411" y="-748.9" font-family="Sarabun" font-size="12.00">capillary refill &gt; 2 วินาที)</text>
</g>
<!-- S&#45;&gt;Q1 -->
<g id="edge1" class="edge">
<title>S&#45;&gt;Q1</title>
<path fill="none" stroke="#5f6b78" d="M411,-850.75C411,-843.86 411,-835.76 411,-827.35"/>
<polygon fill="#5f6b78" stroke="#5f6b78" points="413.45,-827.23 411,-820.23 408.55,-827.23 413.45,-827.23"/>
</g>
<!-- U1 -->
<g id="node3" class="node">
<title>U1</title>
<path fill="#eaf1f8" stroke="#7d9bc0" d="M396,-662.5C396,-662.5 12,-662.5 12,-662.5 6,-662.5 0,-656.5 0,-650.5 0,-650.5 0,-606.5 0,-606.5 0,-600.5 6,-594.5 12,-594.5 12,-594.5 396,-594.5 396,-594.5 402,-594.5 408,-600.5 408,-606.5 408,-606.5 408,-650.5 408,-650.5 408,-656.5 402,-662.5 396,-662.5"/>
<text text-anchor="middle" x="204" y="-644.9" font-family="Sarabun" font-size="12.00">IV resuscitate: เข็มเบอร์ใหญ่ (No.18) × 2 เส้น</text>
<text text-anchor="middle" x="204" y="-631.9" font-family="Sarabun" font-size="12.00">+ crystalloid (NSS/RLS) 1000 ml IV load</text>
<text text-anchor="middle" x="204" y="-618.9" font-family="Sarabun" font-size="12.00">Retain foley cath; O2 cannula 3 LPM หรือ mask+bag 10 LPM</text>
<text text-anchor="middle" x="204" y="-605.9" font-family="Sarabun" font-size="12.00">Lab: CBC+Platelet, cross&#45;match PRC, PT/PTT/INR</text>
</g>
<!-- Q1&#45;&gt;U1 -->
<g id="edge2" class="edge">
<title>Q1&#45;&gt;U1</title>
<path fill="none" stroke="#5f6b78" d="M347.77,-722.91C320.13,-704.96 287.96,-684.06 261.07,-666.58"/>
<polygon fill="#5f6b78" stroke="#5f6b78" points="262.27,-664.44 255.06,-662.68 259.6,-668.55 262.27,-664.44"/>
<text text-anchor="middle" x="331.5" y="-687" font-family="Sarabun" font-size="10.00">ใช่ (unstable)</text>
</g>
<!-- St1 -->
<g id="node5" class="node">
<title>St1</title>
<path fill="#eaf1f8" stroke="#7d9bc0" d="M796,-669C796,-669 442,-669 442,-669 436,-669 430,-663 430,-657 430,-657 430,-600 430,-600 430,-594 436,-588 442,-588 442,-588 796,-588 796,-588 802,-588 808,-594 808,-600 808,-600 808,-657 808,-657 808,-663 802,-669 796,-669"/>
<text text-anchor="middle" x="619" y="-651.4" font-family="Sarabun" font-size="12.00">ซักประวัติเลือดออก (ลักษณะ, ปริมาณ, anemic symptom)</text>
<text text-anchor="middle" x="619" y="-638.4" font-family="Sarabun" font-size="12.00">Speculum (ปริมาณเลือด, lesion, Os open?, placental base?)</text>
<text text-anchor="middle" x="619" y="-625.4" font-family="Sarabun" font-size="12.00">**ห้าม PV ก่อนทำ U/S หา location รก</text>
<text text-anchor="middle" x="619" y="-612.4" font-family="Sarabun" font-size="12.00">U/S ตำแหน่งรก, retroplacental clot, ประเมินทารก</text>
<text text-anchor="middle" x="619" y="-599.4" font-family="Sarabun" font-size="12.00">ถ้า GA ≥ 28 สัปดาห์ ทำ NST</text>
</g>
<!-- Q1&#45;&gt;St1 -->
<g id="edge5" class="edge">
<title>Q1&#45;&gt;St1</title>
<path fill="none" stroke="#5f6b78" d="M474.54,-722.91C498.98,-707.11 526.96,-689.02 551.74,-672.99"/>
<polygon fill="#5f6b78" stroke="#5f6b78" points="553.09,-675.04 557.63,-669.18 550.43,-670.92 553.09,-675.04"/>
<text text-anchor="middle" x="559.5" y="-687" font-family="Sarabun" font-size="10.00">ไม่ใช่ (stable)</text>
</g>
<!-- U2 -->
<g id="node4" class="node">
<title>U2</title>
<path fill="#eaf1f8" stroke="#7d9bc0" d="M353,-484C353,-484 55,-484 55,-484 49,-484 43,-478 43,-472 43,-472 43,-441 43,-441 43,-435 49,-429 55,-429 55,-429 353,-429 353,-429 359,-429 365,-435 365,-441 365,-441 365,-472 365,-472 365,-478 359,-484 353,-484"/>
<text text-anchor="middle" x="204" y="-466.4" font-family="Sarabun" font-size="12.00">V/S เริ่มคงที่: ซักประวัติเลือดออก, Speculum</text>
<text text-anchor="middle" x="204" y="-453.4" font-family="Sarabun" font-size="12.00">**ห้าม PV ก่อนทำ U/S หา location รก</text>
<text text-anchor="middle" x="204" y="-440.4" font-family="Sarabun" font-size="12.00">U/S ประเมินตำแหน่งรก, FHR; monitor FHR + NST</text>
</g>
<!-- U1&#45;&gt;U2 -->
<g id="edge3" class="edge">
<title>U1&#45;&gt;U2</title>
<path fill="none" stroke="#5f6b78" d="M204,-594.32C204,-564.66 204,-521.38 204,-491.47"/>
<polygon fill="#5f6b78" stroke="#5f6b78" points="206.45,-491.18 204,-484.18 201.55,-491.18 206.45,-491.18"/>
</g>
<!-- CU -->
<g id="node13" class="node">
<title>CU</title>
<path fill="#e3f3e0" stroke="#69a35a" d="M555.5,-154.5C555.5,-154.5 420.5,-154.5 420.5,-154.5 414.5,-154.5 408.5,-148.5 408.5,-142.5 408.5,-142.5 408.5,-130.5 408.5,-130.5 408.5,-124.5 414.5,-118.5 420.5,-118.5 420.5,-118.5 555.5,-118.5 555.5,-118.5 561.5,-118.5 567.5,-124.5 567.5,-130.5 567.5,-130.5 567.5,-142.5 567.5,-142.5 567.5,-148.5 561.5,-154.5 555.5,-154.5"/>
<text text-anchor="middle" x="488" y="-133.4" font-family="Sarabun" font-size="12.00">ปรึกษาสูติแพทย์เพื่อส่งต่อผู้ป่วย</text>
</g>
<!-- U2&#45;&gt;CU -->
<g id="edge4" class="edge">
<title>U2&#45;&gt;CU</title>
<path fill="none" stroke="#5f6b78" d="M197.49,-428.73C186.98,-378.41 172.54,-269.05 227,-205 249.6,-178.42 334.38,-159.91 401.26,-149.08"/>
<polygon fill="#5f6b78" stroke="#5f6b78" points="401.97,-151.45 408.49,-147.93 401.19,-146.61 401.97,-151.45"/>
</g>
<!-- Q2 -->
<g id="node6" class="node">
<title>Q2</title>
<polygon fill="#fdeecf" stroke="#d9a441" points="619,-557 480,-528 619,-499 758,-528 619,-557"/>
<text text-anchor="middle" x="619" y="-524.9" font-family="Sarabun" font-size="12.00">สงสัย รกเกาะต่ำ?</text>
</g>
<!-- St1&#45;&gt;Q2 -->
<g id="edge6" class="edge">
<title>St1&#45;&gt;Q2</title>
<path fill="none" stroke="#5f6b78" d="M619,-587.72C619,-580.03 619,-572.02 619,-564.48"/>
<polygon fill="#5f6b78" stroke="#5f6b78" points="621.45,-564.13 619,-557.13 616.55,-564.13 621.45,-564.13"/>
</g>
<!-- Q3 -->
<g id="node7" class="node">
<title>Q3</title>
<polygon fill="#fdeecf" stroke="#d9a441" points="432,-414 250,-372 432,-330 614,-372 432,-414"/>
<text text-anchor="middle" x="432" y="-375.4" font-family="Sarabun" font-size="12.00">มี uterine contraction</text>
<text text-anchor="middle" x="432" y="-362.4" font-family="Sarabun" font-size="12.00">หรือ active bleeding?</text>
</g>
<!-- Q2&#45;&gt;Q3 -->
<g id="edge7" class="edge">
<title>Q2&#45;&gt;Q3</title>
<path fill="none" stroke="#5f6b78" d="M591.81,-504.61C561.62,-479.74 512.42,-439.23 476.58,-409.71"/>
<polygon fill="#5f6b78" stroke="#5f6b78" points="477.9,-407.63 470.94,-405.07 474.79,-411.41 477.9,-407.63"/>
<text text-anchor="middle" x="570.5" y="-454" font-family="Sarabun" font-size="10.00">สงสัย</text>
</g>
<!-- Q4 -->
<g id="node9" class="node">
<title>Q4</title>
<polygon fill="#fdeecf" stroke="#d9a441" points="835,-414 636,-372 835,-330 1034,-372 835,-414"/>
<text text-anchor="middle" x="835" y="-375.4" font-family="Sarabun" font-size="12.00">uterine tachysystole?</text>
<text text-anchor="middle" x="835" y="-362.4" font-family="Sarabun" font-size="12.00">(มดลูกหดรัดตัว &gt; 5 ครั้งใน 10 นาที)</text>
</g>
<!-- Q2&#45;&gt;Q4 -->
<g id="edge11" class="edge">
<title>Q2&#45;&gt;Q4</title>
<path fill="none" stroke="#5f6b78" d="M649.49,-505.26C684.59,-480.24 742.77,-438.76 784.62,-408.92"/>
<polygon fill="#5f6b78" stroke="#5f6b78" points="786.14,-410.85 790.41,-404.79 783.29,-406.86 786.14,-410.85"/>
<text text-anchor="middle" x="762.5" y="-454" font-family="Sarabun" font-size="10.00">ไม่สงสัย</text>
</g>
<!-- P1 -->
<g id="node8" class="node">
<title>P1</title>
<path fill="#eaf1f8" stroke="#7d9bc0" d="M431.5,-265C431.5,-265 250.5,-265 250.5,-265 244.5,-265 238.5,-259 238.5,-253 238.5,-253 238.5,-241 238.5,-241 238.5,-235 244.5,-229 250.5,-229 250.5,-229 431.5,-229 431.5,-229 437.5,-229 443.5,-235 443.5,-241 443.5,-241 443.5,-253 443.5,-253 443.5,-259 437.5,-265 431.5,-265"/>
<text text-anchor="middle" x="341" y="-243.9" font-family="Sarabun" font-size="12.00">IV resuscitate + Hct stat</text>
</g>
<!-- Q3&#45;&gt;P1 -->
<g id="edge8" class="edge">
<title>Q3&#45;&gt;P1</title>
<path fill="none" stroke="#5f6b78" d="M405.92,-335.75C390.54,-314.96 371.51,-289.24 358.04,-271.03"/>
<polygon fill="#5f6b78" stroke="#5f6b78" points="359.83,-269.34 353.7,-265.17 355.89,-272.25 359.83,-269.34"/>
<text text-anchor="middle" x="393.5" y="-307" font-family="Sarabun" font-size="10.00">ใช่</text>
</g>
<!-- Q3&#45;&gt;CU -->
<g id="edge10" class="edge">
<title>Q3&#45;&gt;CU</title>
<path fill="none" stroke="#5f6b78" d="M442.74,-332.29C446.43,-318.64 450.51,-303.17 454,-289 464.99,-244.36 476.43,-191.96 482.84,-161.95"/>
<polygon fill="#5f6b78" stroke="#5f6b78" points="485.29,-162.18 484.36,-154.82 480.5,-161.16 485.29,-162.18"/>
<text text-anchor="middle" x="480.5" y="-244.5" font-family="Sarabun" font-size="10.00">ไม่ใช่</text>
</g>
<!-- P1&#45;&gt;CU -->
<g id="edge9" class="edge">
<title>P1&#45;&gt;CU</title>
<path fill="none" stroke="#5f6b78" d="M364.29,-228.81C389.99,-209.84 431.37,-179.3 459.11,-158.82"/>
<polygon fill="#5f6b78" stroke="#5f6b78" points="460.64,-160.74 464.82,-154.61 457.73,-156.8 460.64,-160.74"/>
</g>
<!-- Ab -->
<g id="node10" class="node">
<title>Ab</title>
<path fill="#fbe6e0" stroke="#cf7a5f" d="M679.5,-265C679.5,-265 534.5,-265 534.5,-265 528.5,-265 522.5,-259 522.5,-253 522.5,-253 522.5,-241 522.5,-241 522.5,-235 528.5,-229 534.5,-229 534.5,-229 679.5,-229 679.5,-229 685.5,-229 691.5,-235 691.5,-241 691.5,-241 691.5,-253 691.5,-253 691.5,-259 685.5,-265 679.5,-265"/>
<text text-anchor="middle" x="607" y="-243.9" font-family="Sarabun" font-size="12.00">สงสัย รกลอกตัวก่อนกำหนด</text>
</g>
<!-- Q4&#45;&gt;Ab -->
<g id="edge12" class="edge">
<title>Q4&#45;&gt;Ab</title>
<path fill="none" stroke="#5f6b78" d="M780.1,-341.38C738.25,-318.8 681.7,-288.3 644.81,-268.39"/>
<polygon fill="#5f6b78" stroke="#5f6b78" points="645.93,-266.22 638.61,-265.05 643.6,-270.53 645.93,-266.22"/>
<text text-anchor="middle" x="730.5" y="-307" font-family="Sarabun" font-size="10.00">ใช่</text>
</g>
<!-- Q5 -->
<g id="node11" class="node">
<title>Q5</title>
<polygon fill="#fdeecf" stroke="#d9a441" points="871,-289 713,-247 871,-205 1029,-247 871,-289"/>
<text text-anchor="middle" x="871" y="-250.4" font-family="Sarabun" font-size="12.00">GA ≥ 37 สัปดาห์</text>
<text text-anchor="middle" x="871" y="-237.4" font-family="Sarabun" font-size="12.00">และ NST reactive?</text>
</g>
<!-- Q4&#45;&gt;Q5 -->
<g id="edge14" class="edge">
<title>Q4&#45;&gt;Q5</title>
<path fill="none" stroke="#5f6b78" d="M846.39,-332.08C850.01,-319.73 854.03,-305.97 857.77,-293.21"/>
<polygon fill="#5f6b78" stroke="#5f6b78" points="860.19,-293.65 859.81,-286.24 855.49,-292.27 860.19,-293.65"/>
<text text-anchor="middle" x="860.5" y="-307" font-family="Sarabun" font-size="10.00">ไม่ใช่</text>
</g>
<!-- Ab&#45;&gt;CU -->
<g id="edge13" class="edge">
<title>Ab&#45;&gt;CU</title>
<path fill="none" stroke="#5f6b78" d="M588.14,-228.81C567.52,-210 534.4,-179.81 511.95,-159.34"/>
<polygon fill="#5f6b78" stroke="#5f6b78" points="513.59,-157.52 506.77,-154.61 510.29,-161.14 513.59,-157.52"/>
</g>
<!-- Adm -->
<g id="node12" class="node">
<title>Adm</title>
<path fill="#e3f3e0" stroke="#69a35a" d="M964,-164C964,-164 778,-164 778,-164 772,-164 766,-158 766,-152 766,-152 766,-121 766,-121 766,-115 772,-109 778,-109 778,-109 964,-109 964,-109 970,-109 976,-115 976,-121 976,-121 976,-152 976,-152 976,-158 970,-164 964,-164"/>
<text text-anchor="middle" x="871" y="-146.4" font-family="Sarabun" font-size="12.00">Admit รพช. ดูอาการเปลี่ยนแปลง</text>
<text text-anchor="middle" x="871" y="-133.4" font-family="Sarabun" font-size="12.00">ส่งตัวต่อตามข้อบ่งชี้อื่นๆ</text>
<text text-anchor="middle" x="871" y="-120.4" font-family="Sarabun" font-size="12.00">+ ส่งตรวจ CBC ดู Hct baseline</text>
</g>
<!-- Q5&#45;&gt;Adm -->
<g id="edge15" class="edge">
<title>Q5&#45;&gt;Adm</title>
<path fill="none" stroke="#5f6b78" d="M871,-204.98C871,-193.86 871,-181.96 871,-171.29"/>
<polygon fill="#5f6b78" stroke="#5f6b78" points="873.45,-171.12 871,-164.12 868.55,-171.12 873.45,-171.12"/>
<text text-anchor="middle" x="874.5" y="-182" font-family="Sarabun" font-size="10.00">ใช่</text>
</g>
<!-- Q5&#45;&gt;CU -->
<g id="edge16" class="edge">
<title>Q5&#45;&gt;CU</title>
<path fill="none" stroke="#5f6b78" d="M796.24,-224.82C726.16,-204.97 622.34,-175.56 554.92,-156.46"/>
<polygon fill="#5f6b78" stroke="#5f6b78" points="555.5,-154.08 548.1,-154.53 554.17,-158.79 555.5,-154.08"/>
<text text-anchor="middle" x="674.5" y="-182" font-family="Sarabun" font-size="10.00">ไม่ใช่</text>
</g>
<!-- Note -->
<g id="node14" class="node">
<title>Note</title>
<path fill="#f6f2e7" stroke="#c2b283" d="M754.5,-68C754.5,-68 221.5,-68 221.5,-68 215.5,-68 209.5,-62 209.5,-56 209.5,-56 209.5,-12 209.5,-12 209.5,-6 215.5,0 221.5,0 221.5,0 754.5,0 754.5,0 760.5,0 766.5,-6 766.5,-12 766.5,-12 766.5,-56 766.5,-56 766.5,-62 760.5,-68 754.5,-68"/>
<text text-anchor="middle" x="488" y="-50.4" font-family="Sarabun" font-size="12.00">ก่อนส่งตัวทุกราย – NPO; เปิดเส้น (No.18) NSS 1,000 ml IV drip 100&#45;120 ml/hr</text>
<text text-anchor="middle" x="488" y="-37.4" font-family="Sarabun" font-size="12.00">On O2; Lab: CBC+Platelet, cross&#45;match PRC, PT/PTT/INR</text>
<text text-anchor="middle" x="488" y="-24.4" font-family="Sarabun" font-size="12.00">NST + monitor FHR ระหว่าง refer; ถ้า GA &lt; 34 wk start Dexamethasone 6 mg IM q 12 hr</text>
<text text-anchor="middle" x="488" y="-11.4" font-family="Sarabun" font-size="12.00">ยา tocolysis และ MgSO4 for neuroprotection ให้ปรึกษาสูติแพทย์ที่รับ refer เป็นกรณีไป</text>
</g>
<!-- CU&#45;&gt;Note -->
<g id="edge17" class="edge">
<title>CU&#45;&gt;Note</title>
<path fill="none" stroke="#5f6b78" stroke-dasharray="5,2" d="M488,-118.45C488,-104.68 488,-84.87 488,-68.01"/>
<text text-anchor="middle" x="501" y="-86" font-family="Sarabun" font-size="10.00">ก่อนส่งตัว</text>
</g>
</g>
</svg>
