<svg
 viewBox="0.00 0.00 767.00 778.00" xmlns="http://www.w3.org/2000/svg" xmlns:xlink="http://www.w3.org/1999/xlink">
<g id="graph0" class="graph" transform="scale(1 1) rotate(0) translate(4 774)">
<title>tpr</title>
<polygon fill="white" stroke="transparent" points="-4,4 -4,-774 763,-774 763,4 -4,4"/>
<!-- S -->
<g id="node1" class="node">
<title>S</title>
<path fill="#dfeaf6" stroke="#4f7ab0" d="M646.5,-770C646.5,-770 596.5,-770 596.5,-770 590.5,-770 584.5,-764 584.5,-758 584.5,-758 584.5,-746 584.5,-746 584.5,-740 590.5,-734 596.5,-734 596.5,-734 646.5,-734 646.5,-734 652.5,-734 658.5,-740 658.5,-746 658.5,-746 658.5,-758 658.5,-758 658.5,-764 652.5,-770 646.5,-770"/>
<text text-anchor="middle" x="621.5" y="-748.6" font-family="Sarabun, 'TH Sarabun New', Tahoma, sans-serif" font-size="13.00">Term PROM</text>
</g>
<!-- V -->
<g id="node2" class="node">
<title>V</title>
<path fill="#eaf1f8" stroke="#7d9bc0" d="M747,-703C747,-703 496,-703 496,-703 490,-703 484,-697 484,-691 484,-691 484,-659 484,-659 484,-653 490,-647 496,-647 496,-647 747,-647 747,-647 753,-647 759,-653 759,-659 759,-659 759,-691 759,-691 759,-697 753,-703 747,-703"/>
<text text-anchor="middle" x="621.5" y="-685.6" font-family="Sarabun, 'TH Sarabun New', Tahoma, sans-serif" font-size="13.00">ตรวจยืนยันภาวะน้ำเดิน (Hx/PE/Speculum)</text>
<text text-anchor="middle" x="621.5" y="-671.6" font-family="Sarabun, 'TH Sarabun New', Tahoma, sans-serif" font-size="13.00">+ Cough test / Nitrazine test / Fern test</text>
<text text-anchor="middle" x="621.5" y="-657.6" font-family="Sarabun, 'TH Sarabun New', Tahoma, sans-serif" font-size="13.00">หรือ U/S ประเมินน้ำคร่ำ สงสัยน้ำคร่ำน้อย (AFI &lt; 5 cm, DVP &lt; 2 cm)</text>
</g>
<!-- S&#45;&gt;V -->
<g id="edge1" class="edge">
<title>S&#45;&gt;V</title>
<path fill="none" stroke="#5f6b78" d="M621.5,-733.98C621.5,-727.03 621.5,-718.73 621.5,-710.61"/>
<polygon fill="#5f6b78" stroke="#5f6b78" points="623.95,-710.25 621.5,-703.25 619.05,-710.25 623.95,-710.25"/>
</g>
<!-- Y -->
<g id="node3" class="node">
<title>Y</title>
<path fill="#eaf1f8" stroke="#7d9bc0" d="M567.5,-606C567.5,-606 391.5,-606 391.5,-606 385.5,-606 379.5,-600 379.5,-594 379.5,-594 379.5,-576 379.5,-576 379.5,-570 385.5,-564 391.5,-564 391.5,-564 567.5,-564 567.5,-564 573.5,-564 579.5,-570 579.5,-576 579.5,-576 579.5,-594 579.5,-594 579.5,-600 573.5,-606 567.5,-606"/>
<text text-anchor="middle" x="479.5" y="-588.6" font-family="Sarabun, 'TH Sarabun New', Tahoma, sans-serif" font-size="13.00">PV ประเมิน Bishop score</text>
<text text-anchor="middle" x="479.5" y="-574.6" font-family="Sarabun, 'TH Sarabun New', Tahoma, sans-serif" font-size="13.00">ประเมินท่าทารก ต้องเป็น Vertex เท่านั้น; ทำ NST</text>
</g>
<!-- V&#45;&gt;Y -->
<g id="edge2" class="edge">
<title>V&#45;&gt;Y</title>
<path fill="none" stroke="#5f6b78" d="M577.74,-646.88C558.7,-635.08 536.59,-621.38 518.17,-609.96"/>
<polygon fill="#5f6b78" stroke="#5f6b78" points="519.31,-607.79 512.07,-606.18 516.73,-611.95 519.31,-607.79"/>
<text text-anchor="middle" x="554" y="-624" font-family="Sarabun, 'TH Sarabun New', Tahoma, sans-serif" font-size="10.00">ใช่</text>
</g>
<!-- U -->
<g id="node4" class="node">
<title>U</title>
<path fill="#eaf1f8" stroke="#7d9bc0" d="M683.5,-549C683.5,-549 593.5,-549 593.5,-549 587.5,-549 581.5,-543 581.5,-537 581.5,-537 581.5,-525 581.5,-525 581.5,-519 587.5,-513 593.5,-513 593.5,-513 683.5,-513 683.5,-513 689.5,-513 695.5,-519 695.5,-525 695.5,-525 695.5,-537 695.5,-537 695.5,-543 689.5,-549 683.5,-549"/>
<text text-anchor="middle" x="638.5" y="-527.6" font-family="Sarabun, 'TH Sarabun New', Tahoma, sans-serif" font-size="13.00">Admit ใส่ pad observe</text>
</g>
<!-- V&#45;&gt;U -->
<g id="edge3" class="edge">
<title>V&#45;&gt;U</title>
<path fill="none" stroke="#5f6b78" d="M624.74,-646.96C627.88,-620.74 632.59,-581.33 635.61,-556.14"/>
<polygon fill="#5f6b78" stroke="#5f6b78" points="638.05,-556.37 636.45,-549.13 633.18,-555.78 638.05,-556.37"/>
<text text-anchor="middle" x="639" y="-624" font-family="Sarabun, 'TH Sarabun New', Tahoma, sans-serif" font-size="10.00">ไม่แน่ใจ</text>
</g>
<!-- N -->
<g id="node5" class="node">
<title>N</title>
<path fill="#eef0f2" stroke="#8a99a8" d="M733.5,-603C733.5,-603 667.5,-603 667.5,-603 661.5,-603 655.5,-597 655.5,-591 655.5,-591 655.5,-579 655.5,-579 655.5,-573 661.5,-567 667.5,-567 667.5,-567 733.5,-567 733.5,-567 739.5,-567 745.5,-573 745.5,-579 745.5,-579 745.5,-591 745.5,-591 745.5,-597 739.5,-603 733.5,-603"/>
<text text-anchor="middle" x="700.5" y="-581.6" font-family="Sarabun, 'TH Sarabun New', Tahoma, sans-serif" font-size="13.00">ฝากครรภ์ตามเดิม</text>
</g>
<!-- V&#45;&gt;N -->
<g id="edge4" class="edge">
<title>V&#45;&gt;N</title>
<path fill="none" stroke="#5f6b78" d="M646.06,-646.64C657.04,-634.41 669.82,-620.17 680.24,-608.57"/>
<polygon fill="#5f6b78" stroke="#5f6b78" points="682.29,-609.95 685.15,-603.1 678.65,-606.67 682.29,-609.95"/>
<text text-anchor="middle" x="675" y="-624" font-family="Sarabun, 'TH Sarabun New', Tahoma, sans-serif" font-size="10.00">ไม่ใช่</text>
</g>
<!-- NV -->
<g id="node6" class="node">
<title>NV</title>
<path fill="#e3f3e0" stroke="#69a35a" d="M311,-474C311,-474 214,-474 214,-474 208,-474 202,-468 202,-462 202,-462 202,-450 202,-450 202,-444 208,-438 214,-438 214,-438 311,-438 311,-438 317,-438 323,-444 323,-450 323,-450 323,-462 323,-462 323,-468 317,-474 311,-474"/>
<text text-anchor="middle" x="262.5" y="-452.6" font-family="Sarabun, 'TH Sarabun New', Tahoma, sans-serif" font-size="13.00">ถ้า non&#45;Vertex → Refer</text>
</g>
<!-- Y&#45;&gt;NV -->
<g id="edge5" class="edge">
<title>Y&#45;&gt;NV</title>
<path fill="none" stroke="#5f6b78" d="M445.12,-563.88C404.88,-540.33 338.58,-501.53 297.91,-477.72"/>
<polygon fill="#5f6b78" stroke="#5f6b78" points="299.13,-475.6 291.85,-474.18 296.66,-479.83 299.13,-475.6"/>
<text text-anchor="middle" x="432" y="-528.5" font-family="Sarabun, 'TH Sarabun New', Tahoma, sans-serif" font-size="10.00">non&#45;Vertex</text>
</g>
<!-- Q1 -->
<g id="node7" class="node">
<title>Q1</title>
<polygon fill="#fdeecf" stroke="#d9a441" points="479.5,-498 345.5,-456 479.5,-414 613.5,-456 479.5,-498"/>
<text text-anchor="middle" x="479.5" y="-459.6" font-family="Sarabun, 'TH Sarabun New', Tahoma, sans-serif" font-size="13.00">มีภาวะถุงน้ำคร่ำอักเสบหรือไม่?</text>
<text text-anchor="middle" x="479.5" y="-445.6" font-family="Sarabun, 'TH Sarabun New', Tahoma, sans-serif" font-size="13.00">(sign of Chorioamnionitis)</text>
</g>
<!-- Y&#45;&gt;Q1 -->
<g id="edge6" class="edge">
<title>Y&#45;&gt;Q1</title>
<path fill="none" stroke="#5f6b78" d="M479.5,-563.88C479.5,-548.11 479.5,-525.51 479.5,-505.15"/>
<polygon fill="#5f6b78" stroke="#5f6b78" points="481.95,-505.06 479.5,-498.06 477.05,-505.06 481.95,-505.06"/>
<text text-anchor="middle" x="489" y="-528.5" font-family="Sarabun, 'TH Sarabun New', Tahoma, sans-serif" font-size="10.00">Vertex</text>
</g>
<!-- Cons -->
<g id="node14" class="node">
<title>Cons</title>
<path fill="#e3f3e0" stroke="#69a35a" d="M608,-106C608,-106 547,-106 547,-106 541,-106 535,-100 535,-94 535,-94 535,-82 535,-82 535,-76 541,-70 547,-70 547,-70 608,-70 608,-70 614,-70 620,-76 620,-82 620,-82 620,-94 620,-94 620,-100 614,-106 608,-106"/>
<text text-anchor="middle" x="577.5" y="-84.6" font-family="Sarabun, 'TH Sarabun New', Tahoma, sans-serif" font-size="13.00">ปรึกษาสูติแพทย์</text>
</g>
<!-- U&#45;&gt;Cons -->
<g id="edge14" class="edge">
<title>U&#45;&gt;Cons</title>
<path fill="none" stroke="#5f6b78" d="M646.77,-512.91C658.22,-487.65 677.5,-438.56 677.5,-394.5 677.5,-394.5 677.5,-394.5 677.5,-191 677.5,-155.26 645.81,-127.44 618.12,-109.94"/>
<polygon fill="#5f6b78" stroke="#5f6b78" points="619.16,-107.71 611.91,-106.15 616.61,-111.89 619.16,-107.71"/>
</g>
<!-- CA -->
<g id="node8" class="node">
<title>CA</title>
<path fill="#fbe6e0" stroke="#cf7a5f" d="M287,-373C287,-373 12,-373 12,-373 6,-373 0,-367 0,-361 0,-361 0,-287 0,-287 0,-281 6,-275 12,-275 12,-275 287,-275 287,-275 293,-275 299,-281 299,-287 299,-287 299,-361 299,-361 299,-367 293,-373 287,-373"/>
<text text-anchor="middle" x="149.5" y="-355.6" font-family="Sarabun, 'TH Sarabun New', Tahoma, sans-serif" font-size="13.00">วินิจฉัย ภาวะถุงน้ำคร่ำอักเสบ</text>
<text text-anchor="middle" x="149.5" y="-341.6" font-family="Sarabun, 'TH Sarabun New', Tahoma, sans-serif" font-size="13.00">**ปรึกษาสูตินรีแพทย์ก่อนเริ่มให้ยา</text>
<text text-anchor="middle" x="149.5" y="-327.6" font-family="Sarabun, 'TH Sarabun New', Tahoma, sans-serif" font-size="13.00">Mx: NSS/RLS 1000 ml IV drip 100&#45;120 ml/hr</text>
<text text-anchor="middle" x="149.5" y="-313.6" font-family="Sarabun, 'TH Sarabun New', Tahoma, sans-serif" font-size="13.00">Ampicillin 2 g IV then 2 g IV q 6 hr</text>
<text text-anchor="middle" x="149.5" y="-299.6" font-family="Sarabun, 'TH Sarabun New', Tahoma, sans-serif" font-size="13.00">+ Gentamicin 240 mg + 5%D/W 100 ml IV drip in 60 min then q 24 hr</text>
<text text-anchor="middle" x="149.5" y="-285.6" font-family="Sarabun, 'TH Sarabun New', Tahoma, sans-serif" font-size="13.00">IUR + monitor FHR</text>
</g>
<!-- Q1&#45;&gt;CA -->
<g id="edge7" class="edge">
<title>Q1&#45;&gt;CA</title>
<path fill="none" stroke="#5f6b78" d="M421.26,-432.06C381.6,-416.43 327.5,-395.12 278.02,-375.63"/>
<polygon fill="#5f6b78" stroke="#5f6b78" points="278.79,-373.3 271.38,-373.01 277,-377.86 278.79,-373.3"/>
<text text-anchor="middle" x="338" y="-391" font-family="Sarabun, 'TH Sarabun New', Tahoma, sans-serif" font-size="10.00">ใช่</text>
</g>
<!-- Ob -->
<g id="node10" class="node">
<title>Ob</title>
<path fill="#eaf1f8" stroke="#7d9bc0" d="M565,-342C565,-342 394,-342 394,-342 388,-342 382,-336 382,-330 382,-330 382,-318 382,-318 382,-312 388,-306 394,-306 394,-306 565,-306 565,-306 571,-306 577,-312 577,-318 577,-318 577,-330 577,-330 577,-336 571,-342 565,-342"/>
<text text-anchor="middle" x="479.5" y="-320.6" font-family="Sarabun, 'TH Sarabun New', Tahoma, sans-serif" font-size="13.00">Observe uterine contraction ภายใน 1 ชั่วโมง</text>
</g>
<!-- Q1&#45;&gt;Ob -->
<g id="edge9" class="edge">
<title>Q1&#45;&gt;Ob</title>
<path fill="none" stroke="#5f6b78" d="M479.5,-413.87C479.5,-392.65 479.5,-367.49 479.5,-349.37"/>
<polygon fill="#5f6b78" stroke="#5f6b78" points="481.95,-349.06 479.5,-342.06 477.05,-349.06 481.95,-349.06"/>
<text text-anchor="middle" x="483" y="-391" font-family="Sarabun, 'TH Sarabun New', Tahoma, sans-serif" font-size="10.00">ไม่</text>
</g>
<!-- Ref1 -->
<g id="node9" class="node">
<title>Ref1</title>
<path fill="#e3f3e0" stroke="#69a35a" d="M133.5,-210C133.5,-210 103.5,-210 103.5,-210 97.5,-210 91.5,-204 91.5,-198 91.5,-198 91.5,-186 91.5,-186 91.5,-180 97.5,-174 103.5,-174 103.5,-174 133.5,-174 133.5,-174 139.5,-174 145.5,-180 145.5,-186 145.5,-186 145.5,-198 145.5,-198 145.5,-204 139.5,-210 133.5,-210"/>
<text text-anchor="middle" x="118.5" y="-188.6" font-family="Sarabun, 'TH Sarabun New', Tahoma, sans-serif" font-size="13.00">Refer</text>
</g>
<!-- CA&#45;&gt;Ref1 -->
<g id="edge8" class="edge">
<title>CA&#45;&gt;Ref1</title>
<path fill="none" stroke="#5f6b78" d="M138.04,-274.96C133.35,-255.27 128.12,-233.34 124.25,-217.12"/>
<polygon fill="#5f6b78" stroke="#5f6b78" points="126.59,-216.34 122.58,-210.1 121.82,-217.48 126.59,-216.34"/>
</g>
<!-- B7 -->
<g id="node11" class="node">
<title>B7</title>
<polygon fill="#fdeecf" stroke="#d9a441" points="265.5,-220 167.5,-192 265.5,-164 363.5,-192 265.5,-220"/>
<text text-anchor="middle" x="265.5" y="-188.6" font-family="Sarabun, 'TH Sarabun New', Tahoma, sans-serif" font-size="13.00">Bishop score ≥ 7?</text>
</g>
<!-- Ob&#45;&gt;B7 -->
<g id="edge10" class="edge">
<title>Ob&#45;&gt;B7</title>
<path fill="none" stroke="#5f6b78" d="M451.08,-305.74C412.61,-282.37 343.94,-240.65 301.78,-215.04"/>
<polygon fill="#5f6b78" stroke="#5f6b78" points="303.02,-212.92 295.76,-211.38 300.47,-217.11 303.02,-212.92"/>
</g>
<!-- Note -->
<g id="node15" class="node">
<title>Note</title>
<path fill="#f6f2e7" stroke="#c2b283" d="M631,-234C631,-234 398,-234 398,-234 392,-234 386,-228 386,-222 386,-222 386,-162 386,-162 386,-156 392,-150 398,-150 398,-150 631,-150 631,-150 637,-150 643,-156 643,-162 643,-162 643,-222 643,-222 643,-228 637,-234 631,-234"/>
<text text-anchor="middle" x="514.5" y="-216.6" font-family="Sarabun, 'TH Sarabun New', Tahoma, sans-serif" font-size="13.00">** ถ้าน้ำเดินนานกว่า 18 ชั่วโมง หรือมารดามีไข้ขณะรอคลอด</text>
<text text-anchor="middle" x="514.5" y="-202.6" font-family="Sarabun, 'TH Sarabun New', Tahoma, sans-serif" font-size="13.00">แต่ไม่เข้าเกณฑ์ถุงน้ำคร่ำอักเสบ ให้ส่งตรวจ CBC + UA</text>
<text text-anchor="middle" x="514.5" y="-188.6" font-family="Sarabun, 'TH Sarabun New', Tahoma, sans-serif" font-size="13.00">+ เริ่มยาปฏิชีวนะทางหลอดเลือดดำทันที Ampicillin 2 g IV q 6 hr</text>
<text text-anchor="middle" x="514.5" y="-174.6" font-family="Sarabun, 'TH Sarabun New', Tahoma, sans-serif" font-size="13.00">(ถ้าแพ้ penicillin เปลี่ยนเป็น Clindamycin 900 mg IV q 8 hr)</text>
<text text-anchor="middle" x="514.5" y="-160.6" font-family="Sarabun, 'TH Sarabun New', Tahoma, sans-serif" font-size="13.00">→ ปรึกษาสูติแพทย์เพื่อการรักษาที่เหมาะสม +/&#45; Refer</text>
</g>
<!-- Ob&#45;&gt;Note -->
<g id="edge15" class="edge">
<title>Ob&#45;&gt;Note</title>
<path fill="none" stroke="#5f6b78" stroke-dasharray="5,2" d="M484.15,-305.74C489.04,-287.57 496.91,-258.32 503.42,-234.17"/>
<text text-anchor="middle" x="512.5" y="-252" font-family="Sarabun, 'TH Sarabun New', Tahoma, sans-serif" font-size="10.00">หมายเหตุ</text>
</g>
<!-- Ox -->
<g id="node12" class="node">
<title>Ox</title>
<path fill="#eaf1f8" stroke="#7d9bc0" d="M384.5,-109C384.5,-109 146.5,-109 146.5,-109 140.5,-109 134.5,-103 134.5,-97 134.5,-97 134.5,-79 134.5,-79 134.5,-73 140.5,-67 146.5,-67 146.5,-67 384.5,-67 384.5,-67 390.5,-67 396.5,-73 396.5,-79 396.5,-79 396.5,-97 396.5,-97 396.5,-103 390.5,-109 384.5,-109"/>
<text text-anchor="middle" x="265.5" y="-91.6" font-family="Sarabun, 'TH Sarabun New', Tahoma, sans-serif" font-size="13.00">กระตุ้นคลอดด้วย Oxytocin</text>
<text text-anchor="middle" x="265.5" y="-77.6" font-family="Sarabun, 'TH Sarabun New', Tahoma, sans-serif" font-size="13.00">(Oxytocin 10 unit + 5%DN/2 1,000 ml IV drip start 12 ml/hr)</text>
</g>
<!-- B7&#45;&gt;Ox -->
<g id="edge11" class="edge">
<title>B7&#45;&gt;Ox</title>
<path fill="none" stroke="#5f6b78" d="M265.5,-163.93C265.5,-149.26 265.5,-131.16 265.5,-116.43"/>
<polygon fill="#5f6b78" stroke="#5f6b78" points="267.95,-116.07 265.5,-109.07 263.05,-116.07 267.95,-116.07"/>
<text text-anchor="middle" x="270.5" y="-127" font-family="Sarabun, 'TH Sarabun New', Tahoma, sans-serif" font-size="10.00">≥ 7</text>
</g>
<!-- B7&#45;&gt;Cons -->
<g id="edge13" class="edge">
<title>B7&#45;&gt;Cons</title>
<path fill="none" stroke="#5f6b78" d="M305.39,-175.25C325.92,-167.34 351.42,-157.8 374.5,-150 426.41,-132.46 486.6,-114.69 527.89,-102.89"/>
<polygon fill="#5f6b78" stroke="#5f6b78" points="528.79,-105.18 534.85,-100.9 527.45,-100.47 528.79,-105.18"/>
<text text-anchor="middle" x="457.5" y="-127" font-family="Sarabun, 'TH Sarabun New', Tahoma, sans-serif" font-size="10.00">&lt; 7</text>
</g>
<!-- Ref2 -->
<g id="node13" class="node">
<title>Ref2</title>
<path fill="#e3f3e0" stroke="#69a35a" d="M320.5,-36C320.5,-36 210.5,-36 210.5,-36 204.5,-36 198.5,-30 198.5,-24 198.5,-24 198.5,-12 198.5,-12 198.5,-6 204.5,0 210.5,0 210.5,0 320.5,0 320.5,0 326.5,0 332.5,-6 332.5,-12 332.5,-12 332.5,-24 332.5,-24 332.5,-30 326.5,-36 320.5,-36"/>
<text text-anchor="middle" x="265.5" y="-14.6" font-family="Sarabun, 'TH Sarabun New', Tahoma, sans-serif" font-size="13.00">Refer ตามข้อบ่งชี้ทางสูติกรรม</text>
</g>
<!-- Ox&#45;&gt;Ref2 -->
<g id="edge12" class="edge">
<title>Ox&#45;&gt;Ref2</title>
<path fill="none" stroke="#5f6b78" d="M265.5,-66.97C265.5,-59.68 265.5,-51.36 265.5,-43.71"/>
<polygon fill="#5f6b78" stroke="#5f6b78" points="267.95,-43.36 265.5,-36.36 263.05,-43.36 267.95,-43.36"/>
</g>
</g>
</svg>
