<svg
 viewBox="0.00 0.00 899.50 685.00" xmlns="http://www.w3.org/2000/svg" xmlns:xlink="http://www.w3.org/1999/xlink">
<g id="graph0" class="graph" transform="scale(1 1) rotate(0) translate(4 681)">
<title>thy</title>
<polygon fill="white" stroke="transparent" points="-4,4 -4,-681 895.5,-681 895.5,4 -4,4"/>
<!-- S -->
<g id="node1" class="node">
<title>S</title>
<path fill="#dfeaf6" stroke="#4f7ab0" d="M540.5,-677C540.5,-677 373.5,-677 373.5,-677 367.5,-677 361.5,-671 361.5,-665 361.5,-665 361.5,-653 361.5,-653 361.5,-647 367.5,-641 373.5,-641 373.5,-641 540.5,-641 540.5,-641 546.5,-641 552.5,-647 552.5,-653 552.5,-653 552.5,-665 552.5,-665 552.5,-671 546.5,-677 540.5,-677"/>
<text text-anchor="middle" x="457" y="-655.6" font-family="Sarabun, 'TH Sarabun New', Tahoma, sans-serif" font-size="13.00">คัดกรอง TSH ในทารกแรกเกิด อายุ 48&#45;96 ชม.</text>
</g>
<!-- A -->
<g id="node2" class="node">
<title>A</title>
<path fill="#fdeecf" stroke="#d9a441" d="M525,-610C525,-610 389,-610 389,-610 383,-610 377,-604 377,-598 377,-598 377,-586 377,-586 377,-580 383,-574 389,-574 389,-574 525,-574 525,-574 531,-574 537,-580 537,-586 537,-586 537,-598 537,-598 537,-604 531,-610 525,-610"/>
<text text-anchor="middle" x="457" y="-588.6" font-family="Sarabun, 'TH Sarabun New', Tahoma, sans-serif" font-size="13.00">ผลคัดกรอง TSH ≥ 25 มิลลิยูนิต/ลิตร</text>
</g>
<!-- S&#45;&gt;A -->
<g id="edge1" class="edge">
<title>S&#45;&gt;A</title>
<path fill="none" stroke="#5f6b78" d="M457,-640.92C457,-633.81 457,-625.42 457,-617.66"/>
<polygon fill="#5f6b78" stroke="#5f6b78" points="459.45,-617.19 457,-610.19 454.55,-617.19 459.45,-617.19"/>
</g>
<!-- B -->
<g id="node3" class="node">
<title>B</title>
<path fill="#eaf1f8" stroke="#7d9bc0" d="M542,-543C542,-543 372,-543 372,-543 366,-543 360,-537 360,-531 360,-531 360,-499 360,-499 360,-493 366,-487 372,-487 372,-487 542,-487 542,-487 548,-487 554,-493 554,-499 554,-499 554,-531 554,-531 554,-537 548,-543 542,-543"/>
<text text-anchor="middle" x="457" y="-525.6" font-family="Sarabun, 'TH Sarabun New', Tahoma, sans-serif" font-size="13.00">เจาะเลือดส่งตรวจ free T4 (หรือ T4) และ TSH</text>
<text text-anchor="middle" x="457" y="-511.6" font-family="Sarabun, 'TH Sarabun New', Tahoma, sans-serif" font-size="13.00">ให้ thyroxine 10&#45;15 มคก./กก./วัน</text>
<text text-anchor="middle" x="457" y="-497.6" font-family="Sarabun, 'TH Sarabun New', Tahoma, sans-serif" font-size="13.00">(หรือ 50 มคก./วัน ในทารก 3&#45;4.5 กก.)</text>
</g>
<!-- A&#45;&gt;B -->
<g id="edge2" class="edge">
<title>A&#45;&gt;B</title>
<path fill="none" stroke="#5f6b78" d="M457,-573.98C457,-567.03 457,-558.73 457,-550.61"/>
<polygon fill="#5f6b78" stroke="#5f6b78" points="459.45,-550.25 457,-543.25 454.55,-550.25 459.45,-550.25"/>
</g>
<!-- L1 -->
<g id="node4" class="node">
<title>L1</title>
<polygon fill="#fdeecf" stroke="#d9a441" points="349,-446 268,-404 349,-362 430,-404 349,-446"/>
<text text-anchor="middle" x="349" y="-407.6" font-family="Sarabun, 'TH Sarabun New', Tahoma, sans-serif" font-size="13.00">free T4/T4</text>
<text text-anchor="middle" x="349" y="-393.6" font-family="Sarabun, 'TH Sarabun New', Tahoma, sans-serif" font-size="13.00">และ TSH ปกติ</text>
</g>
<!-- B&#45;&gt;L1 -->
<g id="edge3" class="edge">
<title>B&#45;&gt;L1</title>
<path fill="none" stroke="#5f6b78" d="M430.03,-486.78C415.21,-471.82 396.73,-453.17 381.16,-437.46"/>
<polygon fill="#5f6b78" stroke="#5f6b78" points="382.67,-435.5 376,-432.25 379.19,-438.95 382.67,-435.5"/>
<text text-anchor="middle" x="419.5" y="-464" font-family="Sarabun, 'TH Sarabun New', Tahoma, sans-serif" font-size="10.00">ปกติ</text>
</g>
<!-- R1 -->
<g id="node9" class="node">
<title>R1</title>
<polygon fill="#fdeecf" stroke="#d9a441" points="570,-446 457,-404 570,-362 683,-404 570,-446"/>
<text text-anchor="middle" x="570" y="-407.6" font-family="Sarabun, 'TH Sarabun New', Tahoma, sans-serif" font-size="13.00">free T4/T4 ต่ำหรือปกติ</text>
<text text-anchor="middle" x="570" y="-393.6" font-family="Sarabun, 'TH Sarabun New', Tahoma, sans-serif" font-size="13.00">และ TSH สูง</text>
</g>
<!-- B&#45;&gt;R1 -->
<g id="edge8" class="edge">
<title>B&#45;&gt;R1</title>
<path fill="none" stroke="#5f6b78" d="M485.22,-486.78C499.91,-472.61 518.02,-455.14 533.73,-439.98"/>
<polygon fill="#5f6b78" stroke="#5f6b78" points="535.62,-441.56 538.96,-434.94 532.22,-438.04 535.62,-441.56"/>
<text text-anchor="middle" x="522" y="-464" font-family="Sarabun, 'TH Sarabun New', Tahoma, sans-serif" font-size="10.00">TSH สูง</text>
</g>
<!-- L2 -->
<g id="node5" class="node">
<title>L2</title>
<path fill="#eaf1f8" stroke="#7d9bc0" d="M352,-307C352,-307 284,-307 284,-307 278,-307 272,-301 272,-295 272,-295 272,-283 272,-283 272,-277 278,-271 284,-271 284,-271 352,-271 352,-271 358,-271 364,-277 364,-283 364,-283 364,-295 364,-295 364,-301 358,-307 352,-307"/>
<text text-anchor="middle" x="318" y="-285.6" font-family="Sarabun, 'TH Sarabun New', Tahoma, sans-serif" font-size="13.00">หยุดยา thyroxine</text>
</g>
<!-- L1&#45;&gt;L2 -->
<g id="edge4" class="edge">
<title>L1&#45;&gt;L2</title>
<path fill="none" stroke="#5f6b78" d="M339.11,-366.94C334.39,-349.73 328.86,-329.6 324.65,-314.25"/>
<polygon fill="#5f6b78" stroke="#5f6b78" points="326.91,-313.23 322.7,-307.13 322.19,-314.53 326.91,-313.23"/>
</g>
<!-- L3 -->
<g id="node6" class="node">
<title>L3</title>
<path fill="#eaf1f8" stroke="#7d9bc0" d="M261.5,-209C261.5,-209 124.5,-209 124.5,-209 118.5,-209 112.5,-203 112.5,-197 112.5,-197 112.5,-179 112.5,-179 112.5,-173 118.5,-167 124.5,-167 124.5,-167 261.5,-167 261.5,-167 267.5,-167 273.5,-173 273.5,-179 273.5,-179 273.5,-197 273.5,-197 273.5,-203 267.5,-209 261.5,-209"/>
<text text-anchor="middle" x="193" y="-191.6" font-family="Sarabun, 'TH Sarabun New', Tahoma, sans-serif" font-size="13.00">TSH 6&#45;10 → เจาะเลือด free T4/T4</text>
<text text-anchor="middle" x="193" y="-177.6" font-family="Sarabun, 'TH Sarabun New', Tahoma, sans-serif" font-size="13.00">และ TSH ซ้ำใน 1&#45;2 สัปดาห์</text>
</g>
<!-- L2&#45;&gt;L3 -->
<g id="edge5" class="edge">
<title>L2&#45;&gt;L3</title>
<path fill="none" stroke="#5f6b78" d="M296.51,-270.98C276.56,-255.18 246.63,-231.48 224.08,-213.62"/>
<polygon fill="#5f6b78" stroke="#5f6b78" points="225.53,-211.64 218.52,-209.21 222.48,-215.48 225.53,-211.64"/>
</g>
<!-- L5a -->
<g id="node7" class="node">
<title>L5a</title>
<path fill="#e3f3e0" stroke="#69a35a" d="M242,-122C242,-122 144,-122 144,-122 138,-122 132,-116 132,-110 132,-110 132,-92 132,-92 132,-86 138,-80 144,-80 144,-80 242,-80 242,-80 248,-80 254,-86 254,-92 254,-92 254,-110 254,-110 254,-116 248,-122 242,-122"/>
<text text-anchor="middle" x="193" y="-104.6" font-family="Sarabun, 'TH Sarabun New', Tahoma, sans-serif" font-size="13.00">TSH &lt; 6</text>
<text text-anchor="middle" x="193" y="-90.6" font-family="Sarabun, 'TH Sarabun New', Tahoma, sans-serif" font-size="13.00">ส่งต่อกุมารแพทย์ต่อมไร้ท่อ</text>
</g>
<!-- L3&#45;&gt;L5a -->
<g id="edge6" class="edge">
<title>L3&#45;&gt;L5a</title>
<path fill="none" stroke="#5f6b78" d="M193,-166.86C193,-155.72 193,-141.71 193,-129.57"/>
<polygon fill="#5f6b78" stroke="#5f6b78" points="195.45,-129.29 193,-122.29 190.55,-129.29 195.45,-129.29"/>
</g>
<!-- L5b -->
<g id="node8" class="node">
<title>L5b</title>
<path fill="#eef0f2" stroke="#8a99a8" d="M98,-122C98,-122 12,-122 12,-122 6,-122 0,-116 0,-110 0,-110 0,-92 0,-92 0,-86 6,-80 12,-80 12,-80 98,-80 98,-80 104,-80 110,-86 110,-92 110,-92 110,-110 110,-110 110,-116 104,-122 98,-122"/>
<text text-anchor="middle" x="55" y="-104.6" font-family="Sarabun, 'TH Sarabun New', Tahoma, sans-serif" font-size="13.00">TSH &gt; 6</text>
<text text-anchor="middle" x="55" y="-90.6" font-family="Sarabun, 'TH Sarabun New', Tahoma, sans-serif" font-size="13.00">หยุดการติดตามผู้ป่วยได้</text>
</g>
<!-- L3&#45;&gt;L5b -->
<g id="edge7" class="edge">
<title>L3&#45;&gt;L5b</title>
<path fill="none" stroke="#5f6b78" d="M160.3,-166.86C140.42,-154.61 114.92,-138.91 94,-126.02"/>
<polygon fill="#5f6b78" stroke="#5f6b78" points="95.19,-123.88 87.95,-122.29 92.62,-128.05 95.19,-123.88"/>
</g>
<!-- R2 -->
<g id="node10" class="node">
<title>R2</title>
<path fill="#eaf1f8" stroke="#7d9bc0" d="M662,-331C662,-331 484,-331 484,-331 478,-331 472,-325 472,-319 472,-319 472,-259 472,-259 472,-253 478,-247 484,-247 484,-247 662,-247 662,-247 668,-247 674,-253 674,-259 674,-259 674,-319 674,-319 674,-325 668,-331 662,-331"/>
<text text-anchor="middle" x="573" y="-313.6" font-family="Sarabun, 'TH Sarabun New', Tahoma, sans-serif" font-size="13.00">ให้ยา thyroxine ต่อ</text>
<text text-anchor="middle" x="573" y="-299.6" font-family="Sarabun, 'TH Sarabun New', Tahoma, sans-serif" font-size="13.00">ตรวจ free T4/T4 และ TSH: ที่ 2 และ 4 สัปดาห์,</text>
<text text-anchor="middle" x="573" y="-285.6" font-family="Sarabun, 'TH Sarabun New', Tahoma, sans-serif" font-size="13.00">ทุก 1&#45;2 เดือน ใน 6 เดือนแรก,</text>
<text text-anchor="middle" x="573" y="-271.6" font-family="Sarabun, 'TH Sarabun New', Tahoma, sans-serif" font-size="13.00">ทุก 2&#45;3 เดือน ช่วงอายุ 6 เดือน &#45; 3 ปี</text>
<text text-anchor="middle" x="573" y="-257.6" font-family="Sarabun, 'TH Sarabun New', Tahoma, sans-serif" font-size="13.00">เป้าหมาย: free T4 ช่วงสูงของค่าปกติ, TSH 0.5&#45;5</text>
</g>
<!-- R1&#45;&gt;R2 -->
<g id="edge9" class="edge">
<title>R1&#45;&gt;R2</title>
<path fill="none" stroke="#5f6b78" d="M571.08,-362.2C571.29,-354.46 571.51,-346.29 571.72,-338.34"/>
<polygon fill="#5f6b78" stroke="#5f6b78" points="574.17,-338.18 571.91,-331.12 569.27,-338.05 574.17,-338.18"/>
</g>
<!-- R3 -->
<g id="node11" class="node">
<title>R3</title>
<path fill="#eaf1f8" stroke="#7d9bc0" d="M666.5,-216C666.5,-216 483.5,-216 483.5,-216 477.5,-216 471.5,-210 471.5,-204 471.5,-204 471.5,-172 471.5,-172 471.5,-166 477.5,-160 483.5,-160 483.5,-160 666.5,-160 666.5,-160 672.5,-160 678.5,-166 678.5,-172 678.5,-172 678.5,-204 678.5,-204 678.5,-210 672.5,-216 666.5,-216"/>
<text text-anchor="middle" x="575" y="-198.6" font-family="Sarabun, 'TH Sarabun New', Tahoma, sans-serif" font-size="13.00">กลุ่มสงสัย transient / ไม่ทราบสาเหตุ permanent:</text>
<text text-anchor="middle" x="575" y="-184.6" font-family="Sarabun, 'TH Sarabun New', Tahoma, sans-serif" font-size="13.00">ให้ยาถึงอายุ 3 ปี แล้วหยุด thyroxine 1 เดือน</text>
<text text-anchor="middle" x="575" y="-170.6" font-family="Sarabun, 'TH Sarabun New', Tahoma, sans-serif" font-size="13.00">เจาะเลือด free T4/T4 และ TSH</text>
</g>
<!-- R2&#45;&gt;R3 -->
<g id="edge10" class="edge">
<title>R2&#45;&gt;R3</title>
<path fill="none" stroke="#5f6b78" d="M573.83,-246.88C573.99,-239.07 574.15,-230.97 574.31,-223.4"/>
<polygon fill="#5f6b78" stroke="#5f6b78" points="576.76,-223.07 574.45,-216.03 571.86,-222.97 576.76,-223.07"/>
</g>
<!-- O1 -->
<g id="node12" class="node">
<title>O1</title>
<path fill="#e3f3e0" stroke="#69a35a" d="M457.5,-129C457.5,-129 288.5,-129 288.5,-129 282.5,-129 276.5,-123 276.5,-117 276.5,-117 276.5,-85 276.5,-85 276.5,-79 282.5,-73 288.5,-73 288.5,-73 457.5,-73 457.5,-73 463.5,-73 469.5,-79 469.5,-85 469.5,-85 469.5,-117 469.5,-117 469.5,-123 463.5,-129 457.5,-129"/>
<text text-anchor="middle" x="373" y="-111.6" font-family="Sarabun, 'TH Sarabun New', Tahoma, sans-serif" font-size="13.00">free T4/T4 ปกติหรือต่ำ, TSH ≥ 10</text>
<text text-anchor="middle" x="373" y="-97.6" font-family="Sarabun, 'TH Sarabun New', Tahoma, sans-serif" font-size="13.00">ส่งต่อกุมารแพทย์ต่อมไร้ท่อฯ</text>
<text text-anchor="middle" x="373" y="-83.6" font-family="Sarabun, 'TH Sarabun New', Tahoma, sans-serif" font-size="13.00">หาสาเหตุ/ให้คำแนะนำ หรือให้ยา thyroxine ต่อ</text>
</g>
<!-- R3&#45;&gt;O1 -->
<g id="edge11" class="edge">
<title>R3&#45;&gt;O1</title>
<path fill="none" stroke="#5f6b78" d="M510.81,-159.99C489.56,-151.05 465.78,-141.04 444.05,-131.9"/>
<polygon fill="#5f6b78" stroke="#5f6b78" points="444.77,-129.54 437.37,-129.09 442.87,-134.06 444.77,-129.54"/>
</g>
<!-- O2 -->
<g id="node13" class="node">
<title>O2</title>
<path fill="#eaf1f8" stroke="#7d9bc0" d="M879.5,-129C879.5,-129 694.5,-129 694.5,-129 688.5,-129 682.5,-123 682.5,-117 682.5,-117 682.5,-85 682.5,-85 682.5,-79 688.5,-73 694.5,-73 694.5,-73 879.5,-73 879.5,-73 885.5,-73 891.5,-79 891.5,-85 891.5,-85 891.5,-117 891.5,-117 891.5,-123 885.5,-129 879.5,-129"/>
<text text-anchor="middle" x="787" y="-111.6" font-family="Sarabun, 'TH Sarabun New', Tahoma, sans-serif" font-size="13.00">free T4/T4 ปกติ, TSH 5&#45;10</text>
<text text-anchor="middle" x="787" y="-97.6" font-family="Sarabun, 'TH Sarabun New', Tahoma, sans-serif" font-size="13.00">Subclinical hypothyroidism</text>
<text text-anchor="middle" x="787" y="-83.6" font-family="Sarabun, 'TH Sarabun New', Tahoma, sans-serif" font-size="13.00">ติดตาม free T4/T4 และ TSH ทุก 1&#45;3 เดือน 2 ครั้ง</text>
</g>
<!-- R3&#45;&gt;O2 -->
<g id="edge12" class="edge">
<title>R3&#45;&gt;O2</title>
<path fill="none" stroke="#5f6b78" d="M642.37,-159.99C664.77,-151.01 689.84,-140.96 712.73,-131.78"/>
<polygon fill="#5f6b78" stroke="#5f6b78" points="713.86,-133.97 719.44,-129.09 712.03,-129.42 713.86,-133.97"/>
</g>
<!-- O3 -->
<g id="node14" class="node">
<title>O3</title>
<path fill="#eaf1f8" stroke="#7d9bc0" d="M648.5,-129C648.5,-129 503.5,-129 503.5,-129 497.5,-129 491.5,-123 491.5,-117 491.5,-117 491.5,-85 491.5,-85 491.5,-79 497.5,-73 503.5,-73 503.5,-73 648.5,-73 648.5,-73 654.5,-73 660.5,-79 660.5,-85 660.5,-85 660.5,-117 660.5,-117 660.5,-123 654.5,-129 648.5,-129"/>
<text text-anchor="middle" x="576" y="-111.6" font-family="Sarabun, 'TH Sarabun New', Tahoma, sans-serif" font-size="13.00">free T4/T4 ปกติ, TSH ปกติ</text>
<text text-anchor="middle" x="576" y="-97.6" font-family="Sarabun, 'TH Sarabun New', Tahoma, sans-serif" font-size="13.00">Transient hypothyroidism</text>
<text text-anchor="middle" x="576" y="-83.6" font-family="Sarabun, 'TH Sarabun New', Tahoma, sans-serif" font-size="13.00">ติดตาม free T4/T4 และ TSH เป็นระยะ</text>
</g>
<!-- R3&#45;&gt;O3 -->
<g id="edge13" class="edge">
<title>R3&#45;&gt;O3</title>
<path fill="none" stroke="#5f6b78" d="M575.32,-159.64C575.41,-152.13 575.51,-143.9 575.6,-136.07"/>
<polygon fill="#5f6b78" stroke="#5f6b78" points="578.05,-136.05 575.68,-129.02 573.15,-135.99 578.05,-136.05"/>
</g>
<!-- F1 -->
<g id="node15" class="node">
<title>F1</title>
<path fill="#e3f3e0" stroke="#69a35a" d="M685.5,-42C685.5,-42 582.5,-42 582.5,-42 576.5,-42 570.5,-36 570.5,-30 570.5,-30 570.5,-12 570.5,-12 570.5,-6 576.5,0 582.5,0 582.5,0 685.5,0 685.5,0 691.5,0 697.5,-6 697.5,-12 697.5,-12 697.5,-30 697.5,-30 697.5,-36 691.5,-42 685.5,-42"/>
<text text-anchor="middle" x="634" y="-24.6" font-family="Sarabun, 'TH Sarabun New', Tahoma, sans-serif" font-size="13.00">TSH &gt; 5</text>
<text text-anchor="middle" x="634" y="-10.6" font-family="Sarabun, 'TH Sarabun New', Tahoma, sans-serif" font-size="13.00">ส่งต่อกุมารแพทย์ต่อมไร้ท่อฯ</text>
</g>
<!-- O2&#45;&gt;F1 -->
<g id="edge14" class="edge">
<title>O2&#45;&gt;F1</title>
<path fill="none" stroke="#5f6b78" d="M733.92,-72.94C716.39,-64 697.05,-54.14 680.1,-45.5"/>
<polygon fill="#5f6b78" stroke="#5f6b78" points="680.83,-43.12 673.48,-42.13 678.6,-47.49 680.83,-43.12"/>
</g>
<!-- F2 -->
<g id="node16" class="node">
<title>F2</title>
<path fill="#eef0f2" stroke="#8a99a8" d="M812.5,-42C812.5,-42 741.5,-42 741.5,-42 735.5,-42 729.5,-36 729.5,-30 729.5,-30 729.5,-12 729.5,-12 729.5,-6 735.5,0 741.5,0 741.5,0 812.5,0 812.5,0 818.5,0 824.5,-6 824.5,-12 824.5,-12 824.5,-30 824.5,-30 824.5,-36 818.5,-42 812.5,-42"/>
<text text-anchor="middle" x="777" y="-24.6" font-family="Sarabun, 'TH Sarabun New', Tahoma, sans-serif" font-size="13.00">TSH &lt; 5</text>
<text text-anchor="middle" x="777" y="-10.6" font-family="Sarabun, 'TH Sarabun New', Tahoma, sans-serif" font-size="13.00">ติดตามเป็นระยะต่อ</text>
</g>
<!-- O2&#45;&gt;F2 -->
<g id="edge15" class="edge">
<title>O2&#45;&gt;F2</title>
<path fill="none" stroke="#5f6b78" d="M783.5,-72.72C782.54,-65.21 781.49,-57.06 780.53,-49.53"/>
<polygon fill="#5f6b78" stroke="#5f6b78" points="782.92,-48.89 779.6,-42.26 778.06,-49.51 782.92,-48.89"/>
</g>
<!-- O3&#45;&gt;F1 -->
<g id="edge16" class="edge">
<title>O3&#45;&gt;F1</title>
<path fill="none" stroke="#5f6b78" d="M596.29,-72.72C602.22,-64.74 608.69,-56.03 614.57,-48.13"/>
<polygon fill="#5f6b78" stroke="#5f6b78" points="616.73,-49.34 618.94,-42.26 612.79,-46.41 616.73,-49.34"/>
</g>
<!-- O3&#45;&gt;F2 -->
<g id="edge17" class="edge">
<title>O3&#45;&gt;F2</title>
<path fill="none" stroke="#5f6b78" d="M645.74,-72.94C671.02,-63.12 699.19,-52.2 722.93,-42.98"/>
<polygon fill="#5f6b78" stroke="#5f6b78" points="723.86,-45.25 729.5,-40.43 722.08,-40.68 723.86,-45.25"/>
</g>
</g>
</svg>
